<?xml version="1.0" encoding="UTF-8"?>
<svg width="130px" height="130px" viewBox="0 0 130 130" version="1.1" xmlns="http://www.w3.org/2000/svg" xmlns:xlink="http://www.w3.org/1999/xlink">
    <!-- Generator: Sketch 55.1 (78136) - https://sketchapp.com -->
    <title>Artboard Copy 2</title>
    <desc>Created with Sketch.</desc>
    <g id="Artboard-Copy-2" stroke="none" stroke-width="1" fill="none" fill-rule="evenodd">
        <g id="aboutme-3" transform="translate(6.000000, 5.000000)" stroke="#4EC48F" stroke-width="2.80562388">
            <path d="M114.33599,60.6812568 L109.062517,62.9880169 C106.190289,64.2410244 102.800751,62.9343713 101.5345,60.0834917 C100.268249,57.2287803 101.584686,53.8682677 104.456915,52.6114284 L109.734248,50.3046683 C112.610337,49.0516607 115.996015,50.3583139 117.262266,53.2091934 C118.524657,56.0639048 117.208219,59.4244174 114.33599,60.6812568 Z" id="Stroke-1"></path>
            <path d="M109.875929,74.814952 L104.606317,77.1178802 C101.730228,78.3747196 98.3445504,77.0680665 97.0782992,74.2171869 C95.8081875,71.3624756 97.1246255,67.9981311 100.000714,66.7451236 L105.278048,64.4383635 C108.150276,63.1815241 111.535954,64.4881773 112.802205,67.3428886 C114.068456,70.1937682 112.752018,73.5581126 109.875929,74.814952 Z" id="Stroke-3"></path>
            <path d="M105.400812,89.0045919 L100.127339,91.311352 C97.2551111,92.5643595 93.8655729,91.2577064 92.5993217,88.4068268 C91.3330705,85.5521155 92.6495085,82.1916029 95.5217368,80.9347635 L100.79907,78.6280034 C103.671299,77.371164 107.060837,78.681649 108.327088,81.5325286 C109.589479,84.3834081 108.273041,87.7477525 105.400812,89.0045919 Z" id="Stroke-5"></path>
            <path d="M100.941137,103.134455 L95.6715251,105.441215 C92.7954362,106.698055 89.4097585,105.391402 88.1435073,102.53669 C86.8733956,99.685811 88.1898336,96.3214663 91.0659224,95.0684587 L96.3432559,92.7616986 C99.215484,91.5048593 102.601162,92.8115124 103.867413,95.6623919 C105.133664,98.5171033 103.817226,101.877616 100.941137,103.134455 Z" id="Stroke-7"></path>
            <path d="M12.043355,114.038686 L0.55830227,91.4960461 C0.39616035,91.1818362 0.5274181,90.7948217 0.84784142,90.6377167 L14.9657701,83.6752864 C15.2784724,83.5181815 15.660664,83.6408 15.8228059,83.9473462 L34.9980183,119.836241 C35.1601603,120.142787 35.5423519,120.265406 35.8589147,120.108301 L42.8464594,116.602179 C47.7956485,120.391856 55.4472029,121.242522 65.8821937,116.230492 L73.9815687,111.858377" id="Stroke-9"></path>
            <path d="M40.9899344,105.724004 L41.7813414,104.662588 C48.6530704,95.4240523 50.158674,83.2924869 45.757679,72.6706614 L51.7144643,62.6312737 C54.9302791,57.2169017 55.3819601,50.6184949 52.9343892,44.8209401 C52.532895,43.870647 51.7299064,43.1425998 50.7377523,42.8360536 C49.3093591,42.3915616 47.7535688,42.893531 46.8617882,44.0852293 L34.7667731,60.1942315 C32.5199493,63.1868887 30.8637854,66.5818877 29.8947944,70.1914691 L27.5514576,78.9203718 C27.0650318,80.7213307 26.0535751,82.3383618 24.6444846,83.5722103 L18.4908126,88.9406004" id="Stroke-11"></path>
            <path d="M13.7454591,95.5754095 L11.0430938,96.8935581" id="Stroke-13"></path>
            <path d="M90.3208417,105.57418 L88.7804934,110.463591 C87.8269445,113.47924 84.5995482,115.15758 81.5574569,114.21495 L43.3498715,102.336286" id="Stroke-15"></path>
            <path d="M52.3020357,43.3219293 L62.5324188,10.8893425 L64.6364033,4.22962654 C65.5860917,1.21781024 68.8173485,-0.460530149 71.8555793,0.48209938 L113.371632,13.3876939 C116.406002,14.3303235 118.096911,17.537563 117.143362,20.5532111 L107.445731,51.3074575" id="Stroke-17"></path>
            <path d="M59.6837397,98.4531118 L67.0727787,100.752208" id="Stroke-19"></path>
            <path d="M115.044782,27.208712 L62.533963,10.8889593" id="Stroke-21"></path>
            <path d="M87.320058,99.370068 L48.1782262,87.2040162" id="Stroke-23"></path>
        </g>
    </g>
</svg>