<?xml version="1.0" encoding="UTF-8"?>
<svg width="130px" height="130px" viewBox="0 0 130 130" version="1.1" xmlns="http://www.w3.org/2000/svg" xmlns:xlink="http://www.w3.org/1999/xlink">
    <!-- Generator: Sketch 55.1 (78136) - https://sketchapp.com -->
    <title>Artboard</title>
    <desc>Created with Sketch.</desc>
    <g id="Artboard" stroke="none" stroke-width="1" fill="none" fill-rule="evenodd">
        <g id="aboutme-1" transform="translate(8.000000, 8.000000)" stroke="#4EC48F" stroke-width="2.80562388">
            <path d="M75.4221142,57.3289141 C75.4221142,67.1930864 67.4236742,75.1915264 57.559502,75.1915264 C47.6953298,75.1915264 39.699335,67.1930864 39.699335,57.3289141 C39.699335,47.4647419 47.6953298,39.4663018 57.559502,39.4663018 C67.4236742,39.4663018 75.4221142,47.4647419 75.4221142,57.3289141 Z" id="Stroke-1"></path>
            <path d="M114.445993,13.8600453 C114.445993,21.4207842 108.31573,27.5486016 100.754991,27.5486016 C93.1966973,27.5486016 87.0688798,21.4207842 87.0688798,13.8600453 C87.0688798,6.29930648 93.1966973,0.171489042 100.754991,0.171489042 C108.31573,0.171489042 114.445993,6.29930648 114.445993,13.8600453 Z" id="Stroke-3"></path>
            <path d="M21.8056678,13.8108956 C21.8056678,18.1903534 18.2551527,21.7408685 13.875695,21.7408685 C9.49623727,21.7408685 5.94572212,18.1903534 5.94572212,13.8108956 C5.94572212,9.43143791 9.49623727,5.88092278 13.875695,5.88092278 C18.2551527,5.88092278 21.8056678,9.43143791 21.8056678,13.8108956 Z" id="Stroke-5"></path>
            <path d="M19.2122268,57.1689942 C19.2122268,59.5360043 17.292699,61.4555321 14.9256889,61.4555321 C12.5562336,61.4555321 10.639151,59.5360043 10.639151,57.1689942 C10.639151,54.8019841 12.5562336,52.8824563 14.9256889,52.8824563 C17.292699,52.8824563 19.2122268,54.8019841 19.2122268,57.1689942 Z" id="Stroke-7"></path>
            <path d="M57.3406513,19.1552523 C54.9736413,19.1552523 53.0541135,17.2357245 53.0541135,14.8687144 C53.0541135,12.5017044 54.9736413,10.5821765 57.3406513,10.5821765 C59.7076614,10.5821765 61.6271892,12.5017044 61.6271892,14.8687144 C61.6271892,17.2357245 59.7076614,19.1552523 57.3406513,19.1552523 Z" id="Stroke-9"></path>
            <path d="M19.2026903,57.1665489 L33.6786198,57.1665489" id="Stroke-11"></path>
            <path d="M40.6811061,40.3972116 L20.236301,20.0282095" id="Stroke-13"></path>
            <path d="M57.3357608,19.3689679 L57.3357608,33.5050064" id="Stroke-15"></path>
            <path d="M92.753861,100.460093 C92.753861,96.080635 96.3019308,92.5301198 100.681389,92.5301198 C105.060846,92.5301198 108.611362,96.080635 108.611362,100.460093 C108.611362,104.83955 105.060846,108.390066 100.681389,108.390066 C96.3019308,108.390066 92.753861,104.83955 92.753861,100.460093 Z" id="Stroke-17"></path>
            <path d="M95.7554156,57.0005159 C95.7554156,54.6335059 97.6749434,52.7139781 100.044399,52.7139781 C102.411409,52.7139781 104.330937,54.6335059 104.330937,57.0005159 C104.330937,59.367526 102.411409,61.2870538 100.044399,61.2870538 C97.6749434,61.2870538 95.7554156,59.367526 95.7554156,57.0005159 Z" id="Stroke-19"></path>
            <path d="M57.2164322,95.115736 C59.5834423,95.115736 61.5029701,97.0352638 61.5029701,99.4047192 C61.5029701,101.771729 59.5834423,103.691257 57.2164322,103.691257 C54.8494222,103.691257 52.9298944,101.771729 52.9298944,99.4047192 C52.9298944,97.0352638 54.8494222,95.115736 57.2164322,95.115736 Z" id="Stroke-21"></path>
            <path d="M95.5358314,57.1056621 L80.881398,57.1056621" id="Stroke-23"></path>
            <path d="M73.8772,73.8749993 L94.31956,94.2415562" id="Stroke-25"></path>
            <path d="M57.2223008,94.9702432 L57.2223008,80.7657373" id="Stroke-27"></path>
            <path d="M89.3150941,23.3151258 L73.0223377,39.4660573" id="Stroke-29"></path>
            <path d="M0.171978084,100.202118 C0.171978084,92.6413791 6.29979554,86.5135617 13.8605344,86.5135617 C21.418828,86.5135617 27.5490907,92.6413791 27.5490907,100.202118 C27.5490907,107.762857 21.418828,113.890674 13.8605344,113.890674 C6.29979554,113.890674 0.171978084,107.762857 0.171978084,100.202118 Z" id="Stroke-31"></path>
            <path d="M25.3014092,90.7458149 L41.5941657,74.5973286" id="Stroke-33"></path>
        </g>
    </g>
</svg>