<?xml version="1.0" encoding="UTF-8"?>
<svg width="130px" height="130px" viewBox="0 0 130 130" version="1.1" xmlns="http://www.w3.org/2000/svg" xmlns:xlink="http://www.w3.org/1999/xlink">
    <!-- Generator: Sketch 55.1 (78136) - https://sketchapp.com -->
    <title>Artboard Copy</title>
    <desc>Created with Sketch.</desc>
    <g id="Artboard-Copy" stroke="none" stroke-width="1" fill="none" fill-rule="evenodd">
        <g id="aboutme-2" transform="translate(11.000000, 6.000000)" stroke="#4EC48F" stroke-width="2.80562388">
            <path d="M64.8241831,102.133304 L88.8428671,102.133304 C93.2489833,102.133304 96.8178061,98.5693129 96.8178061,94.1733495 L96.8178061,78.1241481 L105.746434,78.1241481 C106.970459,78.1241481 107.867827,76.9717537 107.565576,75.7875044 L98.7026551,41.0657646 C92.1657583,15.9360694 77.6820826,1.53582283 55.2234679,0.889357626 L49.7191079,1.07299122 C28.6046684,3.09483456 11.7311392,20.1259135 10.1466645,41.311234 C10.1466645,41.311234 10.0696936,42.7690599 10.0696936,43.5092157 C10.0696936,46.2168743 10.2424089,46.9663992 10.5934714,49.4904242 C10.983958,52.2880258 14.3443961,58.8894661 17.7217302,66.8325559 M24.3487393,87.0790966 C27.4050483,102.251354 26.425077,117.150034 26.425077,117.150034 L77.9655609,117.150034 L75.1101272,102.897819" id="Stroke-594"></path>
            <path d="M53.4324731,28.265473 L53.4324731,51.5117383" id="Stroke-596" stroke-linecap="round"></path>
            <path d="M53.4324731,59.0615677 L53.4313985,59.8780488" id="Stroke-598" stroke-linecap="round"></path>
            <path d="M30.9036742,21.618132 C18.4606668,34.0358854 18.4606668,54.1699973 30.9036742,66.5896244 C43.3448044,79.0073777 63.5186967,79.0073777 75.9598268,66.5896244 C88.4028343,54.1699973 88.400957,34.0358854 75.9598268,21.618132 C63.5168194,9.1985049 43.3448044,9.1985049 30.9036742,21.618132 Z" id="Stroke-600"></path>
            <path d="M30.6602359,66.832749 L22.1971886,75.2798943" id="Stroke-602"></path>
            <polygon id="Stroke-604" stroke-linejoin="round" points="19.2298167 72.3168668 25.1659648 78.2418609 5.98143048 97.785722 0.047159717 91.8626017"></polygon>
        </g>
    </g>
</svg>