<?xml version="1.0" encoding="UTF-8"?>
<svg width="401px" height="357px" viewBox="0 0 401 357" version="1.1" xmlns="http://www.w3.org/2000/svg" xmlns:xlink="http://www.w3.org/1999/xlink">
    <!-- Generator: Sketch 55.1 (78136) - https://sketchapp.com -->
    <title>Artboard Copy 3</title>
    <desc>Created with Sketch.</desc>
    <g id="Artboard-Copy-3" stroke="none" stroke-width="1" fill="none" fill-rule="evenodd">
        <g id="home" transform="translate(9.000000, 6.000000)">
            <polyline id="Path" fill="#4EC48F" fill-rule="nonzero" points="351.1512 83.7371737 344.5896 101.492021 337.3648 84.0593858"></polyline>
            <g id="Group" transform="translate(312.000000, 112.734266)" fill-rule="nonzero">
                <g transform="translate(4.400000, 63.562937)" id="Path">
                    <polygon fill="#E6E6E6" points="0.2132 57.3517587 11.4264 63.8027972 27.8584 54.4910268 16.614 48.014803"></polygon>
                    <polygon fill="#66AAD7" points="4.8772 7.06627972 4.8772 54.7440793 16.0764 61.2858648 16.0764 13.6088648"></polygon>
                    <polygon fill="#0071BC" points="16.0764 61.2858648 27.8584 54.4910268 27.8584 6.81002914 16.0764 13.6088648"></polygon>
                    <polygon fill="#CCCCCC" points="0.2132 57.3517587 0.2132 60.627049 11.4264 67.0852832 11.4264 63.8027972"></polygon>
                    <polygon fill="#808080" points="27.8584 54.4910268 27.8584 57.7703147 11.4264 67.0852832 11.4264 63.8027972"></polygon>
                    <polygon fill="#338DC9" points="27.8584 6.81002914 16.0764 13.6088648 4.8772 7.06627972 16.6084 0.201882284"></polygon>
                </g>
                <g transform="translate(20.400000, 73.157343)" id="Path">
                    <polygon fill="#E6E6E6" points="0.0144 57.3665501 11.2276 63.8171888 27.6608 54.4942249 16.4152 48.0243974"></polygon>
                    <polygon fill="#66AAD7" points="4.672 7.07427506 4.672 54.7508753 15.8732 61.297458 15.8732 13.6196585"></polygon>
                    <polygon fill="#0071BC" points="15.8732 61.297458 27.6608 54.4942249 27.6608 6.81722494 15.8732 13.6196585"></polygon>
                    <polygon fill="#CCCCCC" points="0.0144 57.3665501 0.0144 60.6410408 11.2276 67.0920793 11.2276 63.8171888"></polygon>
                    <polygon fill="#808080" points="27.6608 54.4942249 27.6608 57.7763112 11.2276 67.0920793 11.2276 63.8171888"></polygon>
                    <polygon fill="#338DC9" points="27.6608 6.81722494 15.8732 13.6196585 4.672 7.07427506 16.4084 0.208678322"></polygon>
                </g>
                <g transform="translate(0.000000, 9.994172)" id="Path">
                    <polygon fill="#333333" points="0.5108 5.49919347 9.4764 0.327009324 18.436 5.33049184 9.4712 10.5030758"></polygon>
                    <polygon fill="#808080" points="9.4712 10.5030758 0.5108 5.49919347 0.368 15.8443613 9.4712 20.8402483"></polygon>
                    <polygon fill="#1A1A1A" points="18.436 5.33049184 9.4712 10.5030758 9.4712 20.8402483 18.436 15.8443613"></polygon>
                    <polygon fill="#FDD0B1" points="9.4712 20.8402483 0.5288 15.6460769 0.5108 49.8057587 9.4764 54.8072424"></polygon>
                    <polygon fill="#BC845E" points="9.4764 54.8072424 18.436 49.6374569 18.436 15.8443613 9.4712 20.8402483"></polygon>
                </g>
                <polygon id="Path" fill="#333333" points="9.4016 23.2488438 23.3244 15.0248392 50.8328 31.2237937 37.0224 39.1987436"></polygon>
                <polygon id="Path" fill="#808080" points="9.4016 23.2488438 9.4016 71.0693601 37.0224 87.0116643 37.0224 39.1987436"></polygon>
                <polygon id="Path" fill="#1A1A1A" points="50.8328 31.2237937 37.0224 39.1987436 37.0224 87.0116643 50.8328 79.0399126"></polygon>
                <polygon id="Path" fill="#FBB07D" points="17.7668 7.97694872 31.578 0.0019988345 45.3872 7.97694872 31.578 15.9447028"></polygon>
                <polygon id="Path" fill="#FDD0B1" points="31.578 15.9447028 31.578 31.8798112 17.7668 23.9120571 17.7668 7.97694872"></polygon>
                <polygon id="Path" fill="#BC845E" points="45.3872 7.97694872 45.3872 23.9120571 31.578 31.8798112 31.578 15.9447028"></polygon>
                <path d="M20.4764,20.929796 L27.3944,24.3366096 C27.3944,24.3366096 26.7268,27.3624452 23.2044,25.7325956 C19.7232,24.1103415 20.4764,20.929796 20.4764,20.929796 Z" id="Path" fill="#F15A24"></path>
                <g transform="translate(41.200000, 33.580420)" id="Path">
                    <polygon fill="#333333" points="0.1548 5.31090326 9.1196 0.138319347 18.0792 5.1426014 9.1136 10.3179837"></polygon>
                    <polygon fill="#808080" points="9.1136 10.3179837 0.1548 5.31090326 0.0048 15.6520734 9.1136 20.6563555"></polygon>
                    <polygon fill="#1A1A1A" points="18.0792 5.1426014 9.1136 10.3179837 9.1136 20.6563555 18.0792 15.6520734"></polygon>
                </g>
                <g transform="translate(8.800000, 38.777389)" id="Path">
                    <polygon fill="#FBB07D" points="0.4108 19.226789 32.7684 0.113933566 41.5168 5.00148368 9.1612 24.1171375"></polygon>
                    <polygon fill="#FDD0B1" points="9.1612 24.1171375 0.4108 19.226789 0.2648 29.3261002 9.1612 34.2132506"></polygon>
                    <polygon fill="#BC845E" points="41.5168 5.00148368 9.1612 24.1171375 9.1612 34.2132506 41.5168 15.2646993"></polygon>
                </g>
            </g>
            <g id="Group" transform="translate(304.400000, 0.000000)" fill-rule="nonzero">
                <polygon id="Path" fill="#71D0A5" points="0.3584 23.0905361 39.87 0.293828671 79.358 22.3513671 39.846 45.1616667"></polygon>
                <polygon id="Path" fill="#4EC48F" points="39.846 45.1616667 0.3584 23.0905361 0.4092 68.6723578 39.846 90.7282972"></polygon>
                <polygon id="Path" fill="#1A8856" points="79.358 22.3513671 39.846 45.1616667 39.846 90.7282972 79.358 68.6723578"></polygon>
            </g>
            <g id="Group" transform="translate(0.000000, 83.951049)">
                <g transform="translate(21.200000, 98.742424)" fill-rule="nonzero" id="Path">
                    <polygon fill="#808080" points="0.1596 20.6403648 34.672 0.368585082 55.4244 12.3296107 20.9136 32.6017902"></polygon>
                    <polygon fill="#E6E6E6" points="55.4244 12.3296107 55.4244 15.5789161 20.828 35.6723998 20.9136 32.6017902"></polygon>
                    <polygon fill="#B3B3B3" points="0.1596 20.5744033 0.1596 23.8237086 20.828 35.6723998 20.9136 32.6017902"></polygon>
                </g>
                <path d="M7.2064,60.599465 C7.2064,55.1622354 11.8796,52.4666072 11.8796,52.4666072 L93.0708,5.49079837 C93.0708,5.49079837 97.7428,2.11756527 97.7428,8.2899662 C97.7428,13.1315431 97.7428,66.8182389 97.7428,78.239979 C97.7428,83.3909755 93.0708,85.7675897 93.0708,85.7675897 L11.8792,132.990854 C11.8792,132.990854 7.2064,135.76004 7.2064,130.42595 C7.2064,118.690793 7.2064,64.4991911 7.2064,60.599465 Z" id="Path" fill="#333333" fill-rule="nonzero"></path>
                <path d="M7.2068,60.599465 C7.2068,55.1622354 11.8796,52.4666072 11.8796,52.4666072 L90.7788,6.81722494 C90.7788,6.81722494 95.3188,4.062831 96.3592,4.73403963 C96.3592,4.73403963 90.2484,0.793937063 89.5448,0.387773893 C88.1608,-0.412559441 86.1064,1.07057576 86.1064,1.07057576 L4.914,48.0459848 C4.914,48.0459848 0.2424,50.7424126 0.2424,56.1796422 C0.2424,60.0789685 0.2424,114.27057 0.2424,126.005727 C0.2424,127.878635 0.6964,129.013973 1.4176,129.410542 L8.2408,133.349445 C8.2408,133.349445 7.2132,132.856533 7.2132,130.726974 C7.2132,128.598216 7.2068,127.237809 7.2068,127.237809 C7.2068,111.098819 7.2068,64.2165559 7.2068,60.599465 Z" id="Path" fill="#B3B3B3" fill-rule="nonzero"></path>
                <path d="M97.7428,66.962155 L7.292,119.132935 L7.2068,119.057779 C7.2068,124.04647 7.2068,128.083716 7.2068,130.42595 C7.2068,135.76004 11.8796,132.990854 11.8796,132.990854 L93.0708,85.7675897 C93.0708,85.7675897 97.7428,83.3909755 97.7428,78.239979 C97.7428,75.9425186 97.7428,71.9332564 97.7428,66.956958 L97.7428,66.962155 Z" id="Path" fill="#E6E6E6" fill-rule="nonzero"></path>
                <polygon id="Path" fill="#4EC48F" fill-rule="nonzero" points="14.1696 58.6937762 90.7776 14.4891515 90.7776 62.721028 14.0652 107.087558"></polygon>
                <path d="M137.476,26.7759872 L113.9064,26.7759872 L115.5444,50.8179685 C115.6116,53.1594033 118.636,54.9067844 118.636,54.9067844 C118.636,54.9067844 125.19,59.1611037 132.5652,54.9059848 C135.0168,53.49081 135.834,52.129204 135.8372,50.9402972 L135.842,50.9402972 L137.476,26.7759872 Z" id="Path" fill="#71D0A5" fill-rule="nonzero"></path>
                <path d="M123.6592,26.7759872 L113.9064,26.7759872 L115.5444,50.8179685 C115.6116,53.1594033 118.636,54.9067844 118.636,54.9067844 C118.636,54.9067844 120.6332,56.1992308 123.6592,56.6461702 L123.6592,26.7759872 Z" id="Path" fill="#4EC48F" fill-rule="nonzero"></path>
                <path d="M133.6708,22.0491434 C133.6708,22.0491434 125.5852,17.3838636 117.5,22.0491434 C109.414,26.7140233 117.5,31.3809021 117.5,31.3809021 C117.5,31.3809021 125.1088,36.3196224 133.6708,31.3801026 C142.2336,26.4405828 133.6708,22.0491434 133.6708,22.0491434 Z" id="Path" fill="#4EC48F" fill-rule="nonzero"></path>
                <path d="M132.7036,22.7739207 C132.7036,22.7739207 125.5984,18.8234242 118.494,22.7739207 C111.3884,26.7244172 118.494,30.6761131 118.494,30.6761131 C118.494,30.6761131 125.1808,34.8576748 132.7036,30.6753135 C140.2276,26.4917529 132.7036,22.7739207 132.7036,22.7739207 Z" id="Path" fill="#3B936B" fill-rule="nonzero"></path>
                <path d="M123.5348,32.3735233 L126.9932,12.4519394 C126.9932,12.4519394 127.95,14.0006364 129.9884,13.2342832 L126.7628,32.5346294 C126.7632,32.5342296 125.402,32.6457646 123.5348,32.3735233 Z" id="Path" fill="#000000" fill-rule="nonzero"></path>
                <path d="M129.9888,13.2338834 L129.9888,8.72691142 L129.0828,8.49384732 L126.9936,12.4515396 C126.9936,12.4515396 127.872,14.0538054 129.9888,13.2338834 Z" id="Path" fill="#CCCCCC" fill-rule="nonzero"></path>
                <path d="M129.9888,8.72691142 L130.2132,6.44104429 L129.7628,6.44104429 L129.0828,8.49384732 C129.0828,8.49384732 129.5532,8.82005711 129.9888,8.72691142 Z" id="Path" fill="#000000" fill-rule="nonzero"></path>
                <path d="M125.5996,74.998669 L132.5652,79.0179254 C132.5652,79.0179254 139.5288,83.0375816 146.4936,79.0179254 C153.4572,74.998669 146.4936,70.9806119 146.4936,70.9806119 L139.5288,66.962155 C139.5288,66.962155 132.5652,62.9432984 125.5996,66.962155 C118.636,70.9810117 125.5996,74.998669 125.5996,74.998669 Z" id="Path" fill="#E6E6E6" fill-rule="nonzero"></path>
                <path d="M122.5172,70.586042 C122.5172,70.586042 123.1308,65.3403007 127.8444,63.3438648 C131.7684,61.6820338 139.504,61.2966585 146.4932,66.7498788 C150.66,70.001183 149.5888,74.998669 149.5888,74.998669 L122.5172,70.586042 Z" id="Path" fill="#E6E6E6" fill-rule="nonzero"></path>
                <path d="M126.3372,64.6415082 C126.3372,64.6415082 130.3296,63.1295897 136.3784,66.3337214" id="Path" stroke="#999999" stroke-width="0.5"></path>
            </g>
            <g id="Group" transform="translate(137.200000, 10.793706)" fill-rule="nonzero">
                <polygon id="Path" fill="#BFBFBF" points="51.6848 219.654322 103.3672 189.831311 51.6908 160.011899 0.0016 189.831311"></polygon>
                <polygon id="Path" fill="#E6E6E6" points="51.6848 220.648142 51.6848 219.654322 103.3672 189.831311 103.3672 190.825132"></polygon>
                <polygon id="Path" fill="#B3B3B3" points="51.6848 220.648142 51.6848 219.654322 0.0016 189.831311 0.0016 190.825132"></polygon>
                <g transform="translate(16.800000, 31.581585)" id="Path">
                    <polygon fill="#1A1A1A" points="0.3684 20.0794918 34.8848 0.162705128 69.4008 20.0794918 34.8848 39.9966783"></polygon>
                    <polygon fill="#333333" points="69.4008 20.0794918 69.5036 158.268515 34.8848 178.185702 34.8848 39.9966783"></polygon>
                    <polygon fill="#000000" points="34.8848 39.9966783 0.3684 20.0794918 0.3684 158.268515 34.8848 178.185702"></polygon>
                </g>
                <g transform="translate(54.800000, 58.365967)" fill="#BFBFBF" id="Path">
                    <polygon points="0.3572 16.1765676 3.7552 14.2165105 3.7604 18.1486177 0.3572 20.106676"></polygon>
                    <polygon points="7.2476 12.2744429 10.6456 10.3135862 10.6512 14.246493 7.2476 16.2041515"></polygon>
                    <polygon points="17.5836 6.23596387 20.982 4.27550699 20.9876 8.20801399 17.5836 10.1660723"></polygon>
                    <polygon points="24.4752 2.25988228 27.8732 0.298625874 27.8804 4.23113287 24.4752 6.18959091"></polygon>
                    <polygon points="0.3572 24.1667086 3.7552 22.205852 3.7604 26.1387587 0.3572 28.0964172"></polygon>
                    <polygon points="7.2476 20.2641841 10.6456 18.3037273 10.6512 22.2362343 7.2476 24.1942925"></polygon>
                    <polygon points="17.5836 14.2257051 20.982 12.2652483 20.9876 16.1985548 17.5836 18.1558135"></polygon>
                    <polygon points="24.4752 10.2492238 27.8732 8.28836713 27.8804 12.2212739 24.4752 14.1793322"></polygon>
                    <polygon points="0.3572 32.1568497 3.7552 30.195993 3.7604 34.1288998 0.3572 36.0861585"></polygon>
                    <polygon points="7.2476 28.2543252 10.6456 26.2930688 10.6512 30.2259755 7.2476 32.1840338"></polygon>
                    <polygon points="17.5836 22.2158462 20.982 20.2549895 20.9876 24.1874965 17.5836 26.145155"></polygon>
                    <polygon points="24.4752 18.2393648 27.8732 16.2785082 27.8804 20.2110152 24.4752 22.169873"></polygon>
                    <polygon points="0.3572 40.1465909 3.7552 38.1857343 3.7604 42.1182413 0.3572 44.0762995"></polygon>
                    <polygon points="7.2476 36.2436667 10.6456 34.2832098 10.6512 38.2157168 7.2476 40.1741748"></polygon>
                    <polygon points="17.5836 30.2059872 20.982 28.2447308 20.9876 32.1776375 17.5836 34.135296"></polygon>
                    <polygon points="24.4752 26.2291061 27.8732 24.2686492 27.8804 28.2007564 24.4752 30.1584149"></polygon>
                    <polygon points="0.3572 48.1363322 3.7552 46.1758753 3.7604 50.1083823 0.3572 52.0660408"></polygon>
                    <polygon points="7.2476 44.2334079 10.6456 42.2733508 10.6512 46.205458 7.2476 48.1635163"></polygon>
                    <polygon points="17.5836 38.1953287 20.982 36.234472 20.9876 40.1677786 17.5836 42.1254371"></polygon>
                    <polygon points="24.4752 34.2188473 27.8732 32.2583904 27.8804 36.1908974 24.4752 38.1485559"></polygon>
                    <polygon points="0.3572 56.1260734 3.7552 54.1652168 3.7604 58.0981235 0.3572 60.0561818"></polygon>
                    <polygon points="7.2476 52.2239487 10.6456 50.2626923 10.6512 54.1955991 7.2476 56.1532576"></polygon>
                    <polygon points="17.5836 46.1854697 20.982 44.2246131 20.9876 48.15712 17.5836 50.1151783"></polygon>
                    <polygon points="24.4752 42.2089883 27.8732 40.2481317 27.8804 44.1806387 24.4752 46.138697"></polygon>
                    <polygon points="0.3572 64.1154149 3.7552 62.154958 3.7604 66.0878648 0.3572 68.0459231"></polygon>
                    <polygon points="7.2476 60.2132902 10.6456 58.2528333 10.6512 62.1857401 7.2476 64.1429988"></polygon>
                    <polygon points="17.5836 54.175211 20.982 52.2143543 20.9876 56.1468613 17.5836 58.1049196"></polygon>
                    <polygon points="24.4752 50.1979301 27.8732 48.237873 27.8804 52.1707797 24.4752 54.1284382"></polygon>
                    <polygon points="0.3572 72.1055559 3.7552 70.1446993 3.7604 74.0776061 0.3572 76.0356643"></polygon>
                    <polygon points="7.2476 68.2034312 10.6456 66.2425746 10.6512 70.1746818 7.2476 72.1331399"></polygon>
                    <polygon points="17.5836 62.165352 20.982 60.2044953 20.9876 64.1366026 17.5836 66.0946608"></polygon>
                    <polygon points="24.4752 58.1884709 27.8732 56.2276142 27.8804 60.1601212 24.4752 62.1181795"></polygon>
                    <polygon points="0.3572 80.095697 3.7552 78.1344406 3.7604 82.0669476 0.3572 84.0258054"></polygon>
                    <polygon points="7.2476 76.1935723 10.6456 74.2319161 10.6512 78.1652226 7.2476 80.1228811"></polygon>
                    <polygon points="17.5836 70.1546935 20.982 68.1938368 20.9876 72.1267436 17.5836 74.0848019"></polygon>
                    <polygon points="24.4752 66.1786119 27.8732 64.2173555 27.8804 68.1502622 24.4752 70.1083205"></polygon>
                    <polygon points="0.3572 88.0850385 3.7552 86.1245816 3.7604 90.0570886 0.3572 92.0151469"></polygon>
                    <polygon points="7.2476 84.1833135 10.6456 82.2216573 10.6512 86.1545641 7.2476 88.1130221"></polygon>
                    <polygon points="17.5836 78.1444347 20.982 76.1835781 20.9876 80.1164848 17.5836 82.0741434"></polygon>
                    <polygon points="24.4752 74.1679534 27.8732 72.2070967 27.8804 76.1400035 24.4752 78.0980618"></polygon>
                    <polygon points="0.3572 96.0751795 3.7552 94.1143228 3.7604 98.0468298 0.3572 100.005288"></polygon>
                    <polygon points="7.2476 92.172655 10.6456 90.2117984 10.6512 94.1447051 7.2476 96.1027634"></polygon>
                    <polygon points="17.5836 86.134176 20.982 84.1737191 20.9876 88.1066259 17.5836 90.0642844"></polygon>
                    <polygon points="24.4752 82.1576946 27.8732 80.1976375 27.8804 84.1297448 24.4752 86.0870035"></polygon>
                    <polygon points="0.3572 104.064921 3.7552 102.104464 3.7604 106.036971 0.3572 107.99423"></polygon>
                    <polygon points="7.2476 100.162396 10.6456 98.2015396 10.6512 102.134446 7.2476 104.092505"></polygon>
                    <polygon points="17.5836 94.1239172 20.982 92.1630606 20.9876 96.0959674 17.5836 98.0544254"></polygon>
                    <polygon points="24.4752 90.1474359 27.8732 88.1865793 27.8804 92.1198858 24.4752 94.0771445"></polygon>
                    <polygon points="0.3572 112.054262 3.7552 110.094605 3.7604 114.027112 0.3572 115.98517"></polygon>
                    <polygon points="7.2476 108.152937 10.6456 106.191681 10.6512 110.123788 7.2476 112.082646"></polygon>
                    <polygon points="17.5836 102.114058 20.982 100.153601 20.9876 104.085709 17.5836 106.043767"></polygon>
                    <polygon points="24.4752 98.1375769 27.8732 96.17712 27.8804 100.109227 24.4752 102.067286"></polygon>
                    <polygon points="0.3572 120.045203 3.7552 118.084346 3.7604 122.016453 0.3572 123.974512"></polygon>
                    <polygon points="7.2476 116.141879 10.6456 114.181422 10.6512 118.114329 7.2476 120.071987"></polygon>
                    <polygon points="17.5836 110.1034 20.982 108.142943 20.9876 112.07545 17.5836 114.033508"></polygon>
                    <polygon points="24.4752 106.126918 27.8732 104.166861 27.8804 108.098969 24.4752 110.057027"></polygon>
                    <polygon points="0.3572 128.034145 3.7552 126.073288 3.7604 130.006994 0.3572 131.963853"></polygon>
                    <polygon points="7.2476 124.13202 10.6456 122.171163 10.6512 126.10367 7.2476 128.061329"></polygon>
                    <polygon points="17.5836 118.093941 20.982 116.132684 20.9876 120.064791 17.5836 122.023249"></polygon>
                    <polygon points="24.4752 114.117059 27.8732 112.155803 27.8804 116.08911 24.4752 118.046768"></polygon>
                </g>
                <g transform="translate(20.400000, 58.365967)" fill="#BFBFBF" id="Path">
                    <polygon points="27.7876 16.1765676 24.3908 14.2165105 24.3832 18.1486177 27.7876 20.106676"></polygon>
                    <polygon points="20.896 12.2744429 17.4992 10.3135862 17.4924 14.246493 20.896 16.2041515"></polygon>
                    <polygon points="10.56 6.23596387 7.1612 4.27550699 7.1556 8.20801399 10.56 10.1660723"></polygon>
                    <polygon points="3.6696 2.25988228 0.2704 0.298625874 0.2652 4.23113287 3.6696 6.18959091"></polygon>
                    <polygon points="27.7876 24.1667086 24.3908 22.205852 24.3832 26.1387587 27.7876 28.0964172"></polygon>
                    <polygon points="20.896 20.2641841 17.4992 18.3037273 17.4924 22.2362343 20.896 24.1942925"></polygon>
                    <polygon points="10.56 14.2257051 7.1612 12.2652483 7.1556 16.1985548 10.56 18.1558135"></polygon>
                    <polygon points="3.6696 10.2492238 0.2704 8.28836713 0.2652 12.2212739 3.6696 14.1793322"></polygon>
                    <polygon points="27.7876 32.1568497 24.3908 30.195993 24.3832 34.1288998 27.7876 36.0861585"></polygon>
                    <polygon points="20.896 28.2543252 17.4992 26.2930688 17.4924 30.2259755 20.896 32.1840338"></polygon>
                    <polygon points="10.56 22.2158462 7.1612 20.2549895 7.1556 24.1874965 10.56 26.145155"></polygon>
                    <polygon points="3.6696 18.2393648 0.2704 16.2785082 0.2652 20.2110152 3.6696 22.169873"></polygon>
                    <polygon points="27.7876 40.1465909 24.3908 38.1857343 24.3832 42.1182413 27.7876 44.0762995"></polygon>
                    <polygon points="20.896 36.2436667 17.4992 34.2832098 17.4924 38.2157168 20.896 40.1741748"></polygon>
                    <polygon points="10.56 30.2059872 7.1612 28.2447308 7.1556 32.1776375 10.56 34.135296"></polygon>
                    <polygon points="3.6696 26.2291061 0.2704 24.2686492 0.2652 28.2007564 3.6696 30.1584149"></polygon>
                    <polygon points="27.7876 48.1363322 24.3908 46.1758753 24.3832 50.1083823 27.7876 52.0660408"></polygon>
                    <polygon points="20.896 44.2334079 17.4992 42.2733508 17.4924 46.205458 20.896 48.1635163"></polygon>
                    <polygon points="10.56 38.1953287 7.1612 36.234472 7.1556 40.1677786 10.56 42.1254371"></polygon>
                    <polygon points="3.6696 34.2188473 0.2704 32.2583904 0.2652 36.1908974 3.6696 38.1485559"></polygon>
                    <polygon points="27.7876 56.1260734 24.3908 54.1652168 24.3832 58.0981235 27.7876 60.0561818"></polygon>
                    <polygon points="20.896 52.2239487 17.4992 50.2626923 17.4924 54.1955991 20.896 56.1532576"></polygon>
                    <polygon points="10.56 46.1854697 7.1612 44.2246131 7.1556 48.15712 10.56 50.1151783"></polygon>
                    <polygon points="3.6696 42.2089883 0.2704 40.2481317 0.2652 44.1806387 3.6696 46.138697"></polygon>
                    <polygon points="27.7876 64.1154149 24.3908 62.154958 24.3832 66.0878648 27.7876 68.0459231"></polygon>
                    <polygon points="20.896 60.2132902 17.4992 58.2528333 17.4924 62.1857401 20.896 64.1429988"></polygon>
                    <polygon points="10.56 54.175211 7.1612 52.2143543 7.1556 56.1468613 10.56 58.1049196"></polygon>
                    <polygon points="3.6696 50.1979301 0.2704 48.237873 0.2652 52.1707797 3.6696 54.1284382"></polygon>
                    <polygon points="27.7876 72.1055559 24.3908 70.1446993 24.3832 74.0776061 27.7876 76.0356643"></polygon>
                    <polygon points="20.896 68.2034312 17.4992 66.2425746 17.4924 70.1746818 20.896 72.1331399"></polygon>
                    <polygon points="10.56 62.165352 7.1612 60.2044953 7.1556 64.1366026 10.56 66.0946608"></polygon>
                    <polygon points="3.6696 58.1884709 0.2704 56.2276142 0.2652 60.1601212 3.6696 62.1181795"></polygon>
                    <polygon points="27.7876 80.095697 24.3908 78.1344406 24.3832 82.0669476 27.7876 84.0258054"></polygon>
                    <polygon points="20.896 76.1935723 17.4992 74.2319161 17.4924 78.1652226 20.896 80.1228811"></polygon>
                    <polygon points="10.56 70.1546935 7.1612 68.1938368 7.1556 72.1267436 10.56 74.0848019"></polygon>
                    <polygon points="3.6696 66.1786119 0.2704 64.2173555 0.2652 68.1502622 3.6696 70.1083205"></polygon>
                    <polygon points="27.7876 88.0850385 24.3908 86.1245816 24.3832 90.0570886 27.7876 92.0151469"></polygon>
                    <polygon points="20.896 84.1833135 17.4992 82.2216573 17.4924 86.1545641 20.896 88.1130221"></polygon>
                    <polygon points="10.56 78.1444347 7.1612 76.1835781 7.1556 80.1164848 10.56 82.0741434"></polygon>
                    <polygon points="3.6696 74.1679534 0.2704 72.2070967 0.2652 76.1400035 3.6696 78.0980618"></polygon>
                    <polygon points="27.7876 96.0751795 24.3908 94.1143228 24.3832 98.0468298 27.7876 100.005288"></polygon>
                    <polygon points="20.896 92.172655 17.4992 90.2117984 17.4924 94.1447051 20.896 96.1027634"></polygon>
                    <polygon points="10.56 86.134176 7.1612 84.1737191 7.1556 88.1066259 10.56 90.0642844"></polygon>
                    <polygon points="3.6696 82.1576946 0.2704 80.1976375 0.2652 84.1297448 3.6696 86.0870035"></polygon>
                    <polygon points="27.7876 104.064921 24.3908 102.104464 24.3832 106.036971 27.7876 107.99423"></polygon>
                    <polygon points="20.896 100.162396 17.4992 98.2015396 17.4924 102.134446 20.896 104.092505"></polygon>
                    <polygon points="10.56 94.1239172 7.1612 92.1630606 7.1556 96.0959674 10.56 98.0544254"></polygon>
                    <polygon points="3.6696 90.1474359 0.2704 88.1865793 0.2652 92.1198858 3.6696 94.0771445"></polygon>
                    <polygon points="27.7876 112.054262 24.3908 110.094605 24.3832 114.027112 27.7876 115.98517"></polygon>
                    <polygon points="20.896 108.152937 17.4992 106.191681 17.4924 110.123788 20.896 112.082646"></polygon>
                    <polygon points="10.56 102.114058 7.1612 100.153601 7.1556 104.085709 10.56 106.043767"></polygon>
                    <polygon points="3.6696 98.1375769 0.2704 96.17712 0.2652 100.109227 3.6696 102.067286"></polygon>
                    <polygon points="27.7876 120.045203 24.3908 118.084346 24.3832 122.016453 27.7876 123.974512"></polygon>
                    <polygon points="20.896 116.141879 17.4992 114.181422 17.4924 118.114329 20.896 120.071987"></polygon>
                    <polygon points="10.56 110.1034 7.1612 108.142943 7.1556 112.07545 10.56 114.033508"></polygon>
                    <polygon points="3.6696 106.126918 0.2704 104.166861 0.2652 108.098969 3.6696 110.057027"></polygon>
                    <polygon points="27.7876 128.034145 24.3908 126.073288 24.3832 130.006994 27.7876 131.963853"></polygon>
                    <polygon points="20.896 124.13202 17.4992 122.171163 17.4924 126.10367 20.896 128.061329"></polygon>
                    <polygon points="10.56 118.093941 7.1612 116.132684 7.1556 120.064791 10.56 122.023249"></polygon>
                    <polygon points="3.6696 114.117059 0.2704 112.155803 0.2652 116.08911 3.6696 118.046768"></polygon>
                </g>
                <polygon id="Path" fill="#9EC4D5" opacity="0.5" points="51.6688 28.5369604 51.7716 31.7442902 17.1524 51.6610769 17.1524 48.4545466"></polygon>
                <polygon id="Path" fill="#9EC4D5" opacity="0.5" points="17.2984 48.4545466 17.196 51.6614767 51.8144 71.5782634 51.8144 68.3709336"></polygon>
                <polygon id="Path" fill="#9EC4D5" opacity="0.5" points="51.8304 28.5369604 51.7284 31.7442902 86.3472 51.6610769 86.3472 48.4545466"></polygon>
                <g transform="translate(27.600000, 0.000000)" id="Path">
                    <g>
                        <polygon fill="#1A1A1A" points="0.1296 14.0090315 24.1004 0.17789627 48.0704 14.0090315 24.1004 27.8409662"></polygon>
                        <polygon fill="#1A1A1A" points="2.8644 14.0090315 24.1004 1.75537646 45.3368 14.0090315 24.1004 26.263486"></polygon>
                        <polygon fill="#333333" points="48.0704 14.0090315 48.1416 50.8935245 24.1004 64.7250594 24.1004 27.8409662"></polygon>
                        <polygon fill="#000000" points="24.1004 27.8409662 0.1296 14.0090315 0.1296 50.8935245 24.1004 64.7250594"></polygon>
                    </g>
                    <polygon fill="#BFBFBF" points="27.5572 30.8420163 44.7836 20.9014126 44.7836 28.8539755 27.5572 38.7953788"></polygon>
                    <polygon fill="#BFBFBF" points="27.5572 42.7590676 44.7836 32.8180641 44.7836 40.7710268 27.5572 50.7120303"></polygon>
                    <polygon fill="#BFBFBF" points="27.5572 54.6765186 44.7836 44.7351154 44.7836 52.6880781 27.5572 62.6294814"></polygon>
                    <polygon fill="#BFBFBF" points="20.6092 30.8420163 3.3808 20.9014126 3.3808 28.8539755 20.6092 38.7953788"></polygon>
                    <polygon fill="#BFBFBF" points="20.6092 42.7590676 3.3808 32.8180641 3.3808 40.7710268 20.6092 50.7120303"></polygon>
                    <polygon fill="#BFBFBF" points="20.6092 54.6765186 3.3808 44.7351154 3.3808 52.6880781 20.6092 62.6294814"></polygon>
                    <polygon fill="#333333" points="24.1004 1.75537646 24.1004 3.40001748 4.2588 14.8145618 2.8644 14.0090315"></polygon>
                    <polygon fill="#000000" points="24.1004 1.75537646 24.1004 3.40001748 43.9412 14.8145618 45.3368 14.0090315"></polygon>
                    <polygon fill="#333333" points="24.1004 1.75537646 24.1004 3.40001748 4.2588 14.8145618 2.8644 14.0090315"></polygon>
                </g>
                <polygon id="Path" fill="#9EC4D5" opacity="0.5" points="86.2008 48.4545466 86.3036 51.6614767 51.6848 71.5782634 51.6848 68.3709336"></polygon>
            </g>
            <g id="Group" transform="translate(57.600000, 147.513986)" fill-rule="nonzero">
                <polygon id="Path" fill="#BFBFBF" points="51.8416 143.397186 103.5244 113.573776 51.8476 83.7547634 0.1572 113.573776"></polygon>
                <polygon id="Path" fill="#4D4D4D" points="13.9404 22.1171037 51.8416 0.247055944 89.7424 22.1171037 51.8416 43.9875513"></polygon>
                <polygon id="Path" fill="#1A1A1A" points="17.3772 22.1171037 51.8416 2.2306993 86.3056 22.1171037 51.8416 42.0043077"></polygon>
                <polygon id="Path" fill="#333333" points="89.7424 113.573776 89.7424 22.1171037 51.8416 43.9875513 51.8416 135.445423"></polygon>
                <polygon id="Path" fill="#000000" points="51.8416 135.445423 51.8416 43.9875513 13.9404 22.1171037 13.9404 113.573776"></polygon>
                <g transform="translate(55.200000, 51.569930)" id="Path">
                    <polygon fill="#000000" points="0.0708 2.38660839 3.5324 0.37138345 3.5332 8.32354662 0.0708 10.3015932"></polygon>
                    <polygon fill="#1A1A1A" points="0.0708 10.3015932 0.0708 8.86323193 2.3028 7.61356061 3.5332 8.32354662"></polygon>
                    <polygon fill="#FFFFFF" points="2.3028 7.61356061 2.3028 1.0869662 0.0708 2.38660839 0.0708 8.86323193"></polygon>
                </g>
                <g transform="translate(44.800000, 51.569930)" id="Path">
                    <polygon fill="#333333" points="3.6044 2.38660839 0.1424 0.37138345 0.1424 8.32354662 3.6044 10.3015932"></polygon>
                    <polygon fill="#1A1A1A" points="3.6044 10.3015932 3.6044 8.86323193 1.3716 7.61356061 0.1424 8.32354662"></polygon>
                    <polygon fill="#FFFFFF" points="1.3716 7.61356061 1.3716 1.0869662 3.6044 2.38660839 3.6044 8.86323193"></polygon>
                </g>
                <g transform="translate(38.000000, 47.572261)" id="Path">
                    <polygon fill="#333333" points="3.5136 2.4069965 0.0516 0.391371795 0.0508 8.3431352 3.5136 10.3219814"></polygon>
                    <polygon fill="#1A1A1A" points="3.5136 10.3219814 3.5136 8.88322028 1.28 7.63314918 0.0508 8.3431352"></polygon>
                    <polygon fill="#FFFFFF" points="1.28 7.63314918 1.28 1.10695455 3.5136 2.4069965 3.5136 8.88322028"></polygon>
                </g>
                <g transform="translate(30.800000, 43.974359)" id="Path">
                    <polygon fill="#333333" points="3.8228 2.02801748 0.36 0.0123927739 0.36 7.96295688 3.8228 9.9422028"></polygon>
                    <polygon fill="#1A1A1A" points="3.8228 9.9422028 3.8228 8.50344172 1.59 7.25337063 0.36 7.96295688"></polygon>
                    <polygon fill="#FFFFFF" points="1.59 7.25337063 1.59 0.727175991 3.8228 2.02801748 3.8228 8.50344172"></polygon>
                </g>
                <g transform="translate(24.000000, 39.976690)" id="Path">
                    <polygon fill="#333333" points="3.7312 2.04680653 0.2688 0.0323811189 0.2688 7.98334499 3.7312 9.96179138"></polygon>
                    <polygon fill="#1A1A1A" points="3.7312 9.96179138 3.7312 8.52382984 1.4988 7.27335897 0.2688 7.98334499"></polygon>
                    <polygon fill="#FFFFFF" points="1.4988 7.27335897 1.4988 0.747564103 3.7312 2.04680653 3.7312 8.52382984"></polygon>
                </g>
                <g transform="translate(17.200000, 35.979021)" id="Path">
                    <polygon fill="#333333" points="3.6404 2.06679487 0.1772 0.051969697 0.1772 8.00333333 3.6404 9.98217949"></polygon>
                    <polygon fill="#1A1A1A" points="3.6404 9.98217949 3.6404 8.54421795 1.4084 7.29334732 0.1772 8.00333333"></polygon>
                    <polygon fill="#FFFFFF" points="1.4084 7.29334732 1.4084 0.767952214 3.6404 2.06679487 3.6404 8.54421795"></polygon>
                </g>
                <g transform="translate(44.800000, 67.560606)" id="Path">
                    <polygon fill="#333333" points="3.6044 2.30305711 0.1424 0.287032634 0.1424 8.2391958 3.6044 10.2184417"></polygon>
                    <polygon fill="#1A1A1A" points="3.6044 10.2184417 3.6044 8.77888112 1.3716 7.52881002 0.1424 8.2391958"></polygon>
                    <polygon fill="#FFFFFF" points="1.3716 7.52881002 1.3716 1.00301515 3.6044 2.30305711 3.6044 8.77888112"></polygon>
                </g>
                <g transform="translate(38.000000, 63.562937)" id="Path">
                    <polygon fill="#333333" points="3.5136 2.32304545 0.0516 0.307420746 0.0508 8.25918415 3.5136 10.2380303"></polygon>
                    <polygon fill="#1A1A1A" points="3.5136 10.2380303 3.5136 8.79926923 1.28 7.54919814 0.0508 8.25918415"></polygon>
                    <polygon fill="#FFFFFF" points="1.28 7.54919814 1.28 1.02380303 3.5136 2.32304545 3.5136 8.79926923"></polygon>
                </g>
                <g transform="translate(30.800000, 59.565268)" id="Path">
                    <polygon fill="#333333" points="3.8228 2.3430338 0.36 0.328208625 0.36 8.27877273 3.8228 10.2580186"></polygon>
                    <polygon fill="#1A1A1A" points="3.8228 10.2580186 3.8228 8.81925758 1.59 7.56958625 0.36 8.27877273"></polygon>
                    <polygon fill="#FFFFFF" points="1.59 7.56958625 1.59 1.04379138 3.8228 2.3430338 3.8228 8.81925758"></polygon>
                </g>
                <g transform="translate(24.000000, 55.567599)" id="Path">
                    <polygon fill="#333333" points="3.7312 2.36302214 0.2688 0.347797203 0.2688 8.29916084 3.7312 10.278007"></polygon>
                    <polygon fill="#1A1A1A" points="3.7312 10.278007 3.7312 8.83884615 1.4988 7.58997436 0.2688 8.29916084"></polygon>
                    <polygon fill="#FFFFFF" points="1.4988 7.58997436 1.4988 1.06377972 3.7312 2.36302214 3.7312 8.83884615"></polygon>
                </g>
                <g transform="translate(17.200000, 51.569930)" id="Path">
                    <polygon fill="#333333" points="3.6404 2.38341026 0.1772 0.367385781 0.1772 8.31954895 3.6404 10.2979953"></polygon>
                    <polygon fill="#1A1A1A" points="3.6404 10.2979953 3.6404 8.8600338 1.4084 7.6099627 0.1772 8.31954895"></polygon>
                    <polygon fill="#FFFFFF" points="1.4084 7.6099627 1.4084 1.08376807 3.6404 2.38341026 3.6404 8.8600338"></polygon>
                </g>
                <g transform="translate(44.800000, 83.551282)" id="Path">
                    <polygon fill="#333333" points="3.6044 2.21910606 0.1424 0.203481352 0.1424 8.15564452 3.6044 10.1340909"></polygon>
                    <polygon fill="#1A1A1A" points="3.6044 10.1340909 3.6044 8.69493007 1.3716 7.44565851 0.1424 8.15564452"></polygon>
                    <polygon fill="#FFFFFF" points="1.3716 7.44565851 1.3716 0.919463869 3.6044 2.21910606 3.6044 8.69493007"></polygon>
                </g>
                <g transform="translate(38.000000, 79.553613)" id="Path">
                    <polygon fill="#333333" points="3.5136 2.23869464 0.0516 0.223469697 0.0508 8.17563287 3.5136 10.1540793"></polygon>
                    <polygon fill="#1A1A1A" points="3.5136 10.1540793 3.5136 8.71531818 1.28 7.46524709 0.0508 8.17563287"></polygon>
                    <polygon fill="#FFFFFF" points="1.28 7.46524709 1.28 0.939851981 3.5136 2.23869464 3.5136 8.71531818"></polygon>
                </g>
                <g transform="translate(30.800000, 75.555944)" id="Path">
                    <polygon fill="#333333" points="3.8228 2.25908275 0.36 0.243857809 0.36 8.19562121 3.8228 10.1740676"></polygon>
                    <polygon fill="#1A1A1A" points="3.8228 10.1740676 3.8228 8.73530653 1.59 7.48603497 0.36 8.19562121"></polygon>
                    <polygon fill="#FFFFFF" points="1.59 7.48603497 1.59 0.959440559 3.8228 2.25908275 3.8228 8.73530653"></polygon>
                </g>
                <g transform="translate(24.000000, 71.558275)" id="Path">
                    <polygon fill="#333333" points="3.7312 2.27987063 0.2688 0.263846154 0.2688 8.21441026 3.7312 10.1940559"></polygon>
                    <polygon fill="#1A1A1A" points="3.7312 10.1940559 3.7312 8.75609441 1.4988 7.50522378 0.2688 8.21441026"></polygon>
                    <polygon fill="#FFFFFF" points="1.4988 7.50522378 1.4988 0.979428904 3.7312 2.27987063 3.7312 8.75609441"></polygon>
                </g>
                <g transform="translate(17.200000, 67.560606)" id="Path">
                    <polygon fill="#333333" points="3.6404 2.29945921 0.1772 0.283434732 0.1772 8.2355979 3.6404 10.2140443"></polygon>
                    <polygon fill="#1A1A1A" points="3.6404 10.2140443 3.6404 8.77608275 1.4084 7.52561189 0.1772 8.2355979"></polygon>
                    <polygon fill="#FFFFFF" points="1.4084 7.52561189 1.4084 1.00021678 3.6404 2.29945921 3.6404 8.77608275"></polygon>
                </g>
                <g transform="translate(44.800000, 99.541958)" id="Path">
                    <polygon fill="#333333" points="3.6044 2.13515501 0.1424 0.119530303 0.1424 8.07129371 3.6044 10.0501399"></polygon>
                    <polygon fill="#1A1A1A" points="3.6044 10.0501399 3.6044 8.61177855 1.3716 7.36130769 0.1424 8.07129371"></polygon>
                    <polygon fill="#FFFFFF" points="1.3716 7.36130769 1.3716 0.835512821 3.6044 2.13515501 3.6044 8.61177855"></polygon>
                </g>
                <g transform="translate(38.000000, 95.544289)" id="Path">
                    <polygon fill="#333333" points="3.5136 2.15514336 0.0516 0.139118881 0.0508 8.09128205 3.5136 10.070528"></polygon>
                    <polygon fill="#1A1A1A" points="3.5136 10.070528 3.5136 8.63136713 1.28 7.38129604 0.0508 8.09128205"></polygon>
                    <polygon fill="#FFFFFF" points="1.28 7.38129604 1.28 0.855101399 3.5136 2.15514336 3.5136 8.63136713"></polygon>
                </g>
                <g transform="translate(30.800000, 91.546620)" id="Path">
                    <polygon fill="#333333" points="3.8228 2.1751317 0.36 0.160306527 0.36 8.11167016 3.8228 10.0909161"></polygon>
                    <polygon fill="#1A1A1A" points="3.8228 10.0909161 3.8228 8.65095571 1.59 7.40128438 0.36 8.11167016"></polygon>
                    <polygon fill="#FFFFFF" points="1.59 7.40128438 1.59 0.87548951 3.8228 2.1751317 3.8228 8.65095571"></polygon>
                </g>
                <g transform="translate(24.000000, 87.548951)" id="Path">
                    <polygon fill="#333333" points="3.7312 2.19551981 0.2688 0.180294872 0.2688 8.13165851 3.7312 10.1101049"></polygon>
                    <polygon fill="#1A1A1A" points="3.7312 10.1101049 3.7312 8.67174359 1.4988 7.42087296 0.2688 8.13165851"></polygon>
                    <polygon fill="#FFFFFF" points="1.4988 7.42087296 1.4988 0.895877622 3.7312 2.19551981 3.7312 8.67174359"></polygon>
                </g>
                <g transform="translate(17.200000, 83.551282)" id="Path">
                    <polygon fill="#333333" points="3.6404 2.21550816 0.1772 0.200283217 0.1772 8.15164685 3.6404 10.130493"></polygon>
                    <polygon fill="#1A1A1A" points="3.6404 10.130493 3.6404 8.69133217 1.4084 7.44166084 0.1772 8.15164685"></polygon>
                    <polygon fill="#FFFFFF" points="1.4084 7.44166084 1.4084 0.916265734 3.6404 2.21550816 3.6404 8.69133217"></polygon>
                </g>
                <g transform="translate(62.000000, 47.572261)" id="Path">
                    <polygon fill="#000000" points="0.1692 2.4069965 3.6324 0.391371795 3.6324 8.3431352 0.1692 10.3219814"></polygon>
                    <polygon fill="#1A1A1A" points="0.1692 10.3219814 0.1692 8.88322028 2.4012 7.63314918 3.6324 8.3431352"></polygon>
                    <polygon fill="#FFFFFF" points="2.4012 7.63314918 2.4012 1.10695455 0.1692 2.4069965 0.1692 8.88322028"></polygon>
                </g>
                <g transform="translate(68.800000, 43.974359)" id="Path">
                    <polygon fill="#000000" points="0.2692 2.02801748 3.7312 0.0123927739 3.7312 7.96295688 0.2692 9.9422028"></polygon>
                    <polygon fill="#1A1A1A" points="0.2692 9.9422028 0.2692 8.50344172 2.5 7.25337063 3.7312 7.96295688"></polygon>
                    <polygon fill="#FFFFFF" points="2.5 7.25337063 2.5 0.727175991 0.2692 2.02801748 0.2692 8.50344172"></polygon>
                </g>
                <g transform="translate(75.600000, 39.976690)" id="Path">
                    <polygon fill="#000000" points="0.3684 2.04680653 3.83 0.0323811189 3.83 7.98334499 0.3684 9.96179138"></polygon>
                    <polygon fill="#1A1A1A" points="0.3684 9.96179138 0.3684 8.52382984 2.6 7.27335897 3.83 7.98334499"></polygon>
                    <polygon fill="#FFFFFF" points="2.6 7.27335897 2.6 0.747564103 0.3684 2.04680653 0.3684 8.52382984"></polygon>
                </g>
                <g transform="translate(82.800000, 35.979021)" id="Path">
                    <polygon fill="#000000" points="0.042 2.07079254 3.5048 0.0555675991 3.5056 8.00773077 0.042 9.98577739"></polygon>
                    <polygon fill="#1A1A1A" points="0.042 9.98577739 0.042 8.54701632 2.2744 7.29734499 3.5056 8.00773077"></polygon>
                    <polygon fill="#FFFFFF" points="2.2744 7.29734499 2.2744 0.771949883 0.042 2.07079254 0.042 8.54701632"></polygon>
                </g>
                <g transform="translate(55.200000, 67.560606)" id="Path">
                    <polygon fill="#000000" points="0.0708 2.30305711 3.5324 0.287032634 3.5332 8.2391958 0.0708 10.2184417"></polygon>
                    <polygon fill="#1A1A1A" points="0.0708 10.2184417 0.0708 8.77888112 2.3028 7.52881002 3.5332 8.2391958"></polygon>
                    <polygon fill="#FFFFFF" points="2.3028 7.52881002 2.3028 1.00301515 0.0708 2.30305711 0.0708 8.77888112"></polygon>
                </g>
                <g transform="translate(62.000000, 63.562937)" id="Path">
                    <polygon fill="#000000" points="0.1692 2.32304545 3.6324 0.307420746 3.6324 8.25918415 0.1692 10.2380303"></polygon>
                    <polygon fill="#1A1A1A" points="0.1692 10.2380303 0.1692 8.79926923 2.4012 7.54919814 3.6324 8.25918415"></polygon>
                    <polygon fill="#FFFFFF" points="2.4012 7.54919814 2.4012 1.02380303 0.1692 2.32304545 0.1692 8.79926923"></polygon>
                </g>
                <g transform="translate(68.800000, 59.565268)" id="Path">
                    <polygon fill="#000000" points="0.2692 2.3430338 3.7312 0.328208625 3.7312 8.27877273 0.2692 10.2580186"></polygon>
                    <polygon fill="#1A1A1A" points="0.2692 10.2580186 0.2692 8.81925758 2.5 7.56958625 3.7312 8.27877273"></polygon>
                    <polygon fill="#FFFFFF" points="2.5 7.56958625 2.5 1.04379138 0.2692 2.3430338 0.2692 8.81925758"></polygon>
                </g>
                <g transform="translate(75.600000, 55.567599)" id="Path">
                    <polygon fill="#000000" points="0.3684 2.36302214 3.83 0.347797203 3.83 8.29916084 0.3684 10.278007"></polygon>
                    <polygon fill="#1A1A1A" points="0.3684 10.278007 0.3684 8.83884615 2.6 7.58997436 3.83 8.29916084"></polygon>
                    <polygon fill="#FFFFFF" points="2.6 7.58997436 2.6 1.06377972 0.3684 2.36302214 0.3684 8.83884615"></polygon>
                </g>
                <g transform="translate(82.800000, 51.569930)" id="Path">
                    <polygon fill="#000000" points="0.042 2.38660839 3.5048 0.37138345 3.5056 8.32354662 0.042 10.3015932"></polygon>
                    <polygon fill="#1A1A1A" points="0.042 10.3015932 0.042 8.86323193 2.2744 7.61356061 3.5056 8.32354662"></polygon>
                    <polygon fill="#FFFFFF" points="2.2744 7.61356061 2.2744 1.0869662 0.042 2.38660839 0.042 8.86323193"></polygon>
                </g>
                <g transform="translate(55.200000, 83.551282)" id="Path">
                    <polygon fill="#000000" points="0.0708 2.21910606 3.5324 0.203481352 3.5332 8.15564452 0.0708 10.1340909"></polygon>
                    <polygon fill="#1A1A1A" points="0.0708 10.1340909 0.0708 8.69493007 2.3028 7.44565851 3.5332 8.15564452"></polygon>
                    <polygon fill="#FFFFFF" points="2.3028 7.44565851 2.3028 0.919463869 0.0708 2.21910606 0.0708 8.69493007"></polygon>
                </g>
                <g transform="translate(62.000000, 79.553613)" id="Path">
                    <polygon fill="#000000" points="0.1692 2.23869464 3.6324 0.223469697 3.6324 8.17563287 0.1692 10.1540793"></polygon>
                    <polygon fill="#1A1A1A" points="0.1692 10.1540793 0.1692 8.71531818 2.4012 7.46524709 3.6324 8.17563287"></polygon>
                    <polygon fill="#FFFFFF" points="2.4012 7.46524709 2.4012 0.939851981 0.1692 2.23869464 0.1692 8.71531818"></polygon>
                </g>
                <g transform="translate(68.800000, 75.555944)" id="Path">
                    <polygon fill="#000000" points="0.2692 2.25908275 3.7312 0.243857809 3.7312 8.19562121 0.2692 10.1740676"></polygon>
                    <polygon fill="#1A1A1A" points="0.2692 10.1740676 0.2692 8.73530653 2.5 7.48603497 3.7312 8.19562121"></polygon>
                    <polygon fill="#FFFFFF" points="2.5 7.48603497 2.5 0.959440559 0.2692 2.25908275 0.2692 8.73530653"></polygon>
                </g>
                <g transform="translate(75.600000, 71.558275)" id="Path">
                    <polygon fill="#000000" points="0.3684 2.27987063 3.83 0.263846154 3.83 8.21441026 0.3684 10.1940559"></polygon>
                    <polygon fill="#1A1A1A" points="0.3684 10.1940559 0.3684 8.75609441 2.6 7.50522378 3.83 8.21441026"></polygon>
                    <polygon fill="#FFFFFF" points="2.6 7.50522378 2.6 0.979428904 0.3684 2.27987063 0.3684 8.75609441"></polygon>
                </g>
                <g transform="translate(82.800000, 67.560606)" id="Path">
                    <polygon fill="#000000" points="0.042 2.30305711 3.5048 0.287032634 3.5056 8.2391958 0.042 10.2184417"></polygon>
                    <polygon fill="#1A1A1A" points="0.042 10.2184417 0.042 8.77888112 2.2744 7.52881002 3.5056 8.2391958"></polygon>
                    <polygon fill="#FFFFFF" points="2.2744 7.52881002 2.2744 1.00301515 0.042 2.30305711 0.042 8.77888112"></polygon>
                </g>
                <g transform="translate(55.200000, 99.541958)" id="Path">
                    <polygon fill="#000000" points="0.0708 2.13515501 3.5324 0.119530303 3.5332 8.07129371 0.0708 10.0501399"></polygon>
                    <polygon fill="#1A1A1A" points="0.0708 10.0501399 0.0708 8.61177855 2.3028 7.36130769 3.5332 8.07129371"></polygon>
                    <polygon fill="#FFFFFF" points="2.3028 7.36130769 2.3028 0.835512821 0.0708 2.13515501 0.0708 8.61177855"></polygon>
                </g>
                <g transform="translate(62.000000, 95.544289)" id="Path">
                    <polygon fill="#000000" points="0.1692 2.15514336 3.6324 0.139118881 3.6324 8.09128205 0.1692 10.070528"></polygon>
                    <polygon fill="#1A1A1A" points="0.1692 10.070528 0.1692 8.63136713 2.4012 7.38129604 3.6324 8.09128205"></polygon>
                    <polygon fill="#FFFFFF" points="2.4012 7.38129604 2.4012 0.855101399 0.1692 2.15514336 0.1692 8.63136713"></polygon>
                </g>
                <g transform="translate(68.800000, 91.546620)" id="Path">
                    <polygon fill="#000000" points="0.2692 2.1751317 3.7312 0.160306527 3.7312 8.11167016 0.2692 10.0909161"></polygon>
                    <polygon fill="#1A1A1A" points="0.2692 10.0909161 0.2692 8.65095571 2.5 7.40128438 3.7312 8.11167016"></polygon>
                    <polygon fill="#FFFFFF" points="2.5 7.40128438 2.5 0.87548951 0.2692 2.1751317 0.2692 8.65095571"></polygon>
                </g>
                <g transform="translate(75.600000, 87.548951)" id="Path">
                    <polygon fill="#000000" points="0.3684 2.19551981 3.83 0.180294872 3.83 8.13165851 0.3684 10.1101049"></polygon>
                    <polygon fill="#1A1A1A" points="0.3684 10.1101049 0.3684 8.67174359 2.6 7.42087296 3.83 8.13165851"></polygon>
                    <polygon fill="#FFFFFF" points="2.6 7.42087296 2.6 0.895877622 0.3684 2.19551981 0.3684 8.67174359"></polygon>
                </g>
                <g transform="translate(82.800000, 83.551282)" id="Path">
                    <polygon fill="#000000" points="0.042 2.21910606 3.5048 0.203481352 3.5056 8.15564452 0.042 10.1340909"></polygon>
                    <polygon fill="#1A1A1A" points="0.042 10.1340909 0.042 8.69493007 2.2744 7.44565851 3.5056 8.15564452"></polygon>
                    <polygon fill="#FFFFFF" points="2.2744 7.44565851 2.2744 0.919463869 0.042 2.21910606 0.042 8.69493007"></polygon>
                </g>
                <polygon id="Path" fill="#000000" points="51.8416 2.2306993 51.8416 4.41062821 84.4108 23.210866 86.3056 22.1171037"></polygon>
                <polygon id="Path" fill="#333333" points="51.8416 2.2306993 17.3772 22.1171037 19.2852 23.2180618 51.8416 4.41062821"></polygon>
                <polygon id="Path" fill="#000000" points="58.7416 131.462545 58.7416 119.532702 72.5312 111.576141 72.5312 123.524774"></polygon>
                <polygon id="Path" fill="#333333" points="44.9424 131.462545 44.9424 123.519977 41.5052 121.526739 41.5032 129.480101"></polygon>
                <polygon id="Path" fill="#4D4D4D" points="38.0584 127.491661 38.0508 119.543096 24.2688 111.590533 24.2816 119.540697"></polygon>
                <polygon id="Path" fill="#4D4D4D" points="48.4084 121.505152 48.4084 117.533867 20.8404 101.649929 20.8404 105.62641"></polygon>
                <polygon id="Path" fill="#FFFFFF" points="44.9424 131.462545 44.9424 127.486464 41.5032 129.480101"></polygon>
                <polygon id="Path" fill="#FFFFFF" points="47.7584 121.912514 47.7584 117.94083 20.19 102.057291 20.19 106.033773"></polygon>
                <polygon id="Path" fill="#333333" points="47.7584 121.912514 48.4084 121.505152 48.4084 117.533867 47.7584 117.94083"></polygon>
                <polygon id="Path" fill="#1A1A1A" points="48.4084 117.533867 20.8404 101.649929 20.19 102.057291 47.7584 117.94083"></polygon>
                <polygon id="Path" fill="#FFFFFF" points="62.186 129.475704 62.186 121.531536 69.0692 117.550258 69.0692 125.514414"></polygon>
                <polygon id="Path" fill="#333333" points="69.0692 125.518012 65.6368 123.522775 65.6236 119.543895 69.0692 117.550258"></polygon>
                <polygon id="Path" fill="#E6E6E6" points="51.8416 144.390207 51.8416 143.397186 103.5244 113.573776 103.5244 114.568396"></polygon>
                <polygon id="Path" fill="#B3B3B3" points="51.8416 144.390207 51.8416 143.397186 0.1572 113.573776 0.1572 114.568396"></polygon>
            </g>
            <g id="Group" transform="translate(223.200000, 178.695804)" fill-rule="nonzero">
                <ellipse id="Oval" fill="#998675" cx="5.6928" cy="23.4463287" rx="1" ry="1"></ellipse>
                <rect id="Rectangle" fill="#998675" x="5.0428" y="19.8284382" width="1.2996" height="3.61789044"></rect>
                <polygon id="Path" fill="#22B573" points="5.6928 13.8891014 11.2776 17.1104231 5.6928 20.3341434 0.1072 17.1116224"></polygon>
                <polygon id="Path" fill="#4EC48F" points="0.1072 17.1116224 5.6928 0.311018648 5.6928 20.3341434"></polygon>
                <polygon id="Path" fill="#1A8856" points="11.2776 17.1104231 5.6928 0.311018648 5.6928 20.3341434"></polygon>
            </g>
            <g id="Group" transform="translate(60.000000, 237.861305)" fill-rule="nonzero">
                <path d="M6.6052,23.5098916 C6.6052,23.7489522 6.3136,23.9424394 5.9552,23.9424394 C5.5952,23.9424394 5.3056,23.7489522 5.3056,23.5098916 C5.3056,23.2720303 5.5952,23.0789429 5.9552,23.0789429 C6.3136,23.0789429 6.6052,23.2720303 6.6052,23.5098916 Z" id="Path" fill="#998675"></path>
                <rect id="Rectangle" fill="#998675" x="5.306" y="19.8924009" width="1.2996" height="3.61749068"></rect>
                <polygon id="Path" fill="#22B573" points="5.9556 13.9526643 11.5404 17.1747855 5.9556 20.3985058 0.3704 17.1755851"></polygon>
                <polygon id="Path" fill="#4EC48F" points="0.3704 17.1755851 5.9556 0.374581585 5.9556 20.3985058"></polygon>
                <polygon id="Path" fill="#1A8856" points="11.5404 17.1747855 5.9556 0.374581585 5.9556 20.3985058"></polygon>
            </g>
            <g id="Group" transform="translate(183.200000, 201.482517)" fill-rule="nonzero">
                <ellipse id="Oval" fill="#998675" cx="5.6856" cy="23.1908776" rx="1" ry="1"></ellipse>
                <rect id="Rectangle" fill="#998675" x="5.034" y="19.5725874" width="1.3024" height="3.61829021"></rect>
                <polygon id="Path" fill="#22B573" points="5.6848 13.6328508 11.2688 16.8557716 5.6848 20.0790921 0.0984 16.8557716"></polygon>
                <polygon id="Path" fill="#4EC48F" points="0.0984 16.8557716 5.6848 0.0551678322 5.6848 20.0790921"></polygon>
                <polygon id="Path" fill="#1A8856" points="11.2688 16.8557716 5.6848 0.0551678322 5.6848 20.0790921"></polygon>
            </g>
            <g id="Group" transform="translate(182.400000, 165.503497)" fill-rule="nonzero">
                <g transform="translate(0.000000, 84.750583)" id="Path">
                    <polygon fill="#BFBFBF" points="52.0776 81.1854615 141.6596 29.8589895 89.982 0.0391771562 0.394 51.3620513"></polygon>
                    <polygon fill="#E6E6E6" points="52.0776 82.1792821 52.0776 81.1854615 141.6596 29.8589895 141.6596 30.8524103"></polygon>
                    <polygon fill="#B3B3B3" points="52.0776 82.1792821 52.0776 81.1854615 0.394 51.3620513 0.394 52.3566713"></polygon>
                </g>
                <polygon id="Path" fill="#4D4D4D" points="52.0776 22.2498263 89.9788 0.380178322 127.8792 22.2498263 89.9788 44.1194744"></polygon>
                <polygon id="Path" fill="#1A1A1A" points="55.5144 22.2498263 89.9788 2.36302214 124.4416 22.2498263 89.9788 42.1366305"></polygon>
                <polygon id="Path" fill="#333333" points="127.8792 114.71591 127.8792 22.2498263 89.9788 44.1194744 89.9788 136.585958"></polygon>
                <polygon id="Path" fill="#000000" points="89.9788 136.585958 89.9788 44.1194744 52.0776 22.2498263 52.0776 114.71591"></polygon>
                <polygon id="Path" fill="#000000" points="52.0776 158.44841 52.0776 94.8710816 14.1768 73.000634 14.1768 136.578362"></polygon>
                <polygon id="Path" fill="#000000" points="89.9788 2.36302214 89.9788 4.54295105 122.548 23.3431888 124.4416 22.2498263"></polygon>
                <polygon id="Path" fill="#333333" points="89.9788 2.36302214 55.5144 22.2498263 57.4236 23.3507844 89.9788 4.54295105"></polygon>
                <polygon id="Path" fill="#333333" points="89.9788 136.584359 89.9788 73.3276434 52.0776 95.1976911 52.0776 158.455206"></polygon>
                <polygon id="Path" fill="#1A1A1A" points="52.0776 95.1976911 89.9788 73.3276434 52.0776 51.360852 14.1768 73.000634"></polygon>
                <polygon id="Path" fill="#000000" points="33.1272 79.766289 33.1272 61.0480035 21.9688 58.9488275 21.9688 73.3272436"></polygon>
                <polygon id="Path" fill="#333333" points="44.2864 73.3284429 44.2864 59.0455711 33.1272 65.4842168 33.1272 79.7678881"></polygon>
                <polygon id="Path" fill="#000000" points="37.8664 69.1812611 37.8664 77.0330828 41.5584 74.9023252 41.5584 67.0505035"></polygon>
                <polygon id="Path" fill="#1A1A1A" points="33.1272 65.4842168 44.2864 59.0455711 33.1272 52.5789417 21.9688 58.9488275"></polygon>
                <g transform="translate(58.800000, 94.744755)" id="Path">
                    <polygon fill="#000000" points="0.1692 4.08721678 7.0684 0.0743566434 7.0696 8.02612005 0.1692 12.0018019"></polygon>
                    <polygon fill="#1A1A1A" points="1.7612 11.5188834 0.1692 10.5630408 5.8964 7.30174242 7.4892 8.2343986"></polygon>
                    <polygon fill="#5C5C5C" points="1.7612 11.5188834 1.7604 12.8936818 7.4892 9.63118415 7.4892 8.2343986"></polygon>
                    <polygon fill="#FFFFFF" points="5.8384 7.31613403 5.8384 0.790339161 0.1692 4.08721678 0.1692 10.5630408"></polygon>
                    <polygon fill="#000000" points="1.7612 11.5188834 0.1692 10.5630408 0.1692 12.0018019 1.7604 12.8936818"></polygon>
                </g>
                <g transform="translate(72.400000, 86.749417)" id="Path">
                    <polygon fill="#000000" points="0.3512 4.13039161 7.2508 0.116731935 7.2508 8.06849534 0.3512 12.0445769"></polygon>
                    <polygon fill="#1A1A1A" points="1.9436 11.5620583 0.3512 10.6066154 6.0784 7.34491725 7.6708 8.27677389"></polygon>
                    <polygon fill="#5C5C5C" points="1.9436 11.5620583 1.9424 12.9364569 7.6708 9.67395921 7.6708 8.27677389"></polygon>
                    <polygon fill="#FFFFFF" points="6.0216 7.35930886 6.0216 0.832714452 0.3512 4.13039161 0.3512 10.6066154"></polygon>
                    <polygon fill="#000000" points="1.9436 11.5620583 0.3512 10.6066154 0.3512 12.0445769 1.9424 12.9364569"></polygon>
                </g>
                <g transform="translate(86.400000, 78.754079)" id="Path">
                    <polygon fill="#000000" points="0.1324 4.1727669 7.0324 0.159506993 7.0324 8.1112704 0.1324 12.0877517"></polygon>
                    <polygon fill="#1A1A1A" points="1.7252 11.6052331 0.1324 10.6485909 5.8604 7.38689277 7.4532 8.32034848"></polygon>
                    <polygon fill="#5C5C5C" points="1.7252 11.6052331 1.7252 12.9792319 7.4532 9.71713403 7.4532 8.32034848"></polygon>
                    <polygon fill="#FFFFFF" points="5.8028 7.40088462 5.8028 0.875889277 0.1324 4.1727669 0.1324 10.6485909"></polygon>
                    <polygon fill="#000000" points="1.7252 11.6052331 0.1324 10.6485909 0.1324 12.0877517 1.7252 12.9792319"></polygon>
                </g>
                <g transform="translate(100.000000, 70.758741)" id="Path">
                    <polygon fill="#000000" points="0.3152 4.21594172 7.214 0.202681818 7.2152 8.15404545 0.3152 12.1305268"></polygon>
                    <polygon fill="#1A1A1A" points="1.9072 11.6464091 0.3152 10.6921655 6.0428 7.4300676 7.6344 8.36272378"></polygon>
                    <polygon fill="#5C5C5C" points="1.9072 11.6464091 1.9072 13.0224068 7.6344 9.75990909 7.6344 8.36272378"></polygon>
                    <polygon fill="#FFFFFF" points="5.984 7.44405944 5.984 0.918664336 0.3152 4.21594172 0.3152 10.6921655"></polygon>
                    <polygon fill="#000000" points="1.9072 11.6464091 0.3152 10.6921655 0.3152 12.1305268 1.9072 13.0224068"></polygon>
                </g>
                <g transform="translate(114.000000, 62.763403)" id="Path">
                    <polygon fill="#000000" points="0.0972 4.25871678 6.9964 0.24505711 6.9972 8.19642075 0.0972 12.1737016"></polygon>
                    <polygon fill="#1A1A1A" points="1.6908 11.6903834 0.0972 10.7349406 5.8244 7.47324242 7.4172 8.40549883"></polygon>
                    <polygon fill="#5C5C5C" points="1.6908 11.6903834 1.6908 13.0639825 7.4172 9.80268415 7.4172 8.40549883"></polygon>
                    <polygon fill="#FFFFFF" points="5.7664 7.4868345 5.7664 0.961839161 0.0972 4.25871678 0.0972 10.7349406"></polygon>
                    <polygon fill="#000000" points="1.6908 11.6903834 0.0972 10.7349406 0.0972 12.1737016 1.6908 13.0639825"></polygon>
                </g>
                <g transform="translate(100.000000, 54.768065)" id="Path">
                    <polygon fill="#000000" points="0.3152 4.29989277 7.214 0.286632867 7.2152 8.2379965 0.3152 12.2144779"></polygon>
                    <polygon fill="#1A1A1A" points="1.9072 11.7315594 0.3152 10.7765163 6.0428 7.51361888 7.6344 8.44667483"></polygon>
                    <polygon fill="#5C5C5C" points="1.9072 11.7315594 1.9072 13.105958 7.6344 9.84386014 7.6344 8.44667483"></polygon>
                    <polygon fill="#FFFFFF" points="5.984 7.52841026 5.984 1.00301515 0.3152 4.29989277 0.3152 10.7765163"></polygon>
                    <polygon fill="#000000" points="1.9072 11.7315594 0.3152 10.7765163 0.3152 12.2144779 1.9072 13.105958"></polygon>
                </g>
                <g transform="translate(114.000000, 46.772727)" id="Path">
                    <polygon fill="#000000" points="0.0972 4.34266783 6.9964 0.329807692 6.9972 8.2815711 0.0972 12.2576527"></polygon>
                    <polygon fill="#1A1A1A" points="1.6908 11.7743345 0.0972 10.8188916 5.8244 7.55719347 7.4172 8.48944988"></polygon>
                    <polygon fill="#5C5C5C" points="1.6908 11.7743345 1.6908 13.1483333 7.4172 9.8866352 7.4172 8.48944988"></polygon>
                    <polygon fill="#FFFFFF" points="5.7664 7.57158508 5.7664 1.04499068 0.0972 4.34266783 0.0972 10.8188916"></polygon>
                    <polygon fill="#000000" points="1.6908 11.7743345 0.0972 10.8188916 0.0972 12.2576527 1.6908 13.1483333"></polygon>
                </g>
                <g transform="translate(100.000000, 38.777389)" id="Path">
                    <polygon fill="#000000" points="0.3152 4.38384382 7.214 0.37138345 7.2152 8.32274709 0.3152 12.2992284"></polygon>
                    <polygon fill="#1A1A1A" points="1.9072 11.8159103 0.3152 10.8604674 6.0428 7.59836946 7.6344 8.53022611"></polygon>
                    <polygon fill="#5C5C5C" points="1.9072 11.8159103 1.9072 13.1903089 7.6344 9.92821096 7.6344 8.53022611"></polygon>
                    <polygon fill="#FFFFFF" points="5.984 7.61236131 5.984 1.08656643 0.3152 4.38384382 0.3152 10.8604674"></polygon>
                    <polygon fill="#000000" points="1.9072 11.8159103 0.3152 10.8604674 0.3152 12.2992284 1.9072 13.1903089"></polygon>
                </g>
                <g transform="translate(114.000000, 31.181818)" id="Path">
                    <polygon fill="#000000" points="0.0972 4.02725175 6.9964 0.0135920746 6.9972 7.96575524 0.0972 11.9426364"></polygon>
                    <polygon fill="#1A1A1A" points="1.6908 11.4589184 0.0972 10.5034755 5.8244 7.24177739 7.4172 8.1740338"></polygon>
                    <polygon fill="#5C5C5C" points="1.6908 11.4589184 1.6908 12.8325175 7.4172 9.57081935 7.4172 8.1740338"></polygon>
                    <polygon fill="#FFFFFF" points="5.7664 7.25536946 5.7664 0.729574592 0.0972 4.02725175 0.0972 10.5034755"></polygon>
                    <polygon fill="#000000" points="1.6908 11.4589184 0.0972 10.5034755 0.0972 11.9426364 1.6908 12.8325175"></polygon>
                </g>
                <g transform="translate(58.800000, 110.735431)" id="Path">
                    <polygon fill="#000000" points="0.1692 4.20954545 7.0684 0.196285548 7.0696 8.14764918 0.1692 12.1249301"></polygon>
                    <polygon fill="#1A1A1A" points="1.7612 11.6404126 0.1692 10.6857692 5.8964 7.4240711 7.4892 8.35632751"></polygon>
                    <polygon fill="#5C5C5C" points="1.7612 11.6404126 1.7604 13.0156107 7.4892 9.75311305 7.4892 8.35632751"></polygon>
                    <polygon fill="#FFFFFF" points="5.8384 7.43766317 5.8384 0.912268065 0.1692 4.20954545 0.1692 10.6857692"></polygon>
                    <polygon fill="#000000" points="1.7612 11.6404126 0.1692 10.6857692 0.1692 12.1249301 1.7604 13.0156107"></polygon>
                </g>
                <g transform="translate(72.400000, 102.740093)" id="Path">
                    <polygon fill="#000000" points="0.3512 4.25192075 7.2508 0.239060606 7.2508 8.19082401 0.3512 12.1673054"></polygon>
                    <polygon fill="#1A1A1A" points="1.9436 11.6835874 0.3512 10.7281445 6.0784 7.46644639 7.6708 8.3987028"></polygon>
                    <polygon fill="#5C5C5C" points="1.9436 11.6835874 1.9424 13.0583858 7.6708 9.79628788 7.6708 8.3987028"></polygon>
                    <polygon fill="#FFFFFF" points="6.0216 7.48003846 6.0216 0.954643357 0.3512 4.25192075 0.3512 10.7281445"></polygon>
                    <polygon fill="#000000" points="1.9436 11.6835874 0.3512 10.7281445 0.3512 12.1673054 1.9424 13.0583858"></polygon>
                </g>
                <g transform="translate(86.400000, 94.744755)" id="Path">
                    <polygon fill="#000000" points="0.1324 4.29509557 7.0324 0.281435897 7.0324 8.2331993 0.1324 12.2100804"></polygon>
                    <polygon fill="#1A1A1A" points="1.7252 11.7263625 0.1324 10.7717191 5.8604 7.50922145 7.4532 8.44187762"></polygon>
                    <polygon fill="#5C5C5C" points="1.7252 11.7263625 1.7252 13.1007611 7.4532 9.83906294 7.4532 8.44187762"></polygon>
                    <polygon fill="#FFFFFF" points="5.8028 7.52321329 5.8028 0.998217949 0.1324 4.29509557 0.1324 10.7717191"></polygon>
                    <polygon fill="#000000" points="1.7252 11.7263625 0.1324 10.7717191 0.1324 12.2100804 1.7252 13.1007611"></polygon>
                </g>
                <g transform="translate(100.000000, 86.749417)" id="Path">
                    <polygon fill="#000000" points="0.3152 4.33747086 7.214 0.32501049 7.2152 8.27597436 0.3152 12.2524557"></polygon>
                    <polygon fill="#1A1A1A" points="1.9072 11.768338 0.3152 10.8140944 6.0428 7.55239627 7.6344 8.48385315"></polygon>
                    <polygon fill="#5C5C5C" points="1.9072 11.768338 1.9072 13.1435361 7.6344 9.881838 7.6344 8.48385315"></polygon>
                    <polygon fill="#FFFFFF" points="5.984 7.56598834 5.984 1.04059324 0.3152 4.33747086 0.3152 10.8140944"></polygon>
                    <polygon fill="#000000" points="1.9072 11.768338 0.3152 10.8140944 0.3152 12.2524557 1.9072 13.1435361"></polygon>
                </g>
                <g transform="translate(114.000000, 78.754079)" id="Path">
                    <polygon fill="#000000" points="0.0972 4.38024592 6.9964 0.367385781 6.9972 8.31834965 0.0972 12.2952308"></polygon>
                    <polygon fill="#1A1A1A" points="1.6908 11.8119126 0.0972 10.8572692 5.8244 7.59517133 7.4172 8.52742774"></polygon>
                    <polygon fill="#5C5C5C" points="1.6908 11.8119126 1.6908 13.186711 7.4172 9.92501282 7.4172 8.52742774"></polygon>
                    <polygon fill="#FFFFFF" points="5.7664 7.6087634 5.7664 1.08296853 0.0972 4.38024592 0.0972 10.8572692"></polygon>
                    <polygon fill="#000000" points="1.6908 11.8119126 0.0972 10.8572692 0.0972 12.2952308 1.6908 13.186711"></polygon>
                </g>
                <g transform="translate(58.800000, 126.726107)" id="Path">
                    <polygon fill="#000000" points="0.1692 4.33107459 7.0684 0.317414918 7.0696 8.26957809 0.1692 12.2460594"></polygon>
                    <polygon fill="#1A1A1A" points="1.7612 11.7623415 0.1692 10.8076981 5.8964 7.54560023 7.4892 8.47825641"></polygon>
                    <polygon fill="#5C5C5C" points="1.7612 11.7623415 1.7604 13.1371399 7.4892 9.87504196 7.4892 8.47825641"></polygon>
                    <polygon fill="#FFFFFF" points="5.8384 7.55959207 5.8384 1.0337972 0.1692 4.33107459 0.1692 10.8076981"></polygon>
                    <polygon fill="#000000" points="1.7612 11.7623415 0.1692 10.8076981 0.1692 12.2460594 1.7604 13.1371399"></polygon>
                </g>
                <g transform="translate(72.400000, 118.730769)" id="Path">
                    <polygon fill="#000000" points="0.3512 4.37384965 7.2508 0.36098951 7.2508 8.31195338 0.3512 12.2888345"></polygon>
                    <polygon fill="#1A1A1A" points="1.9436 11.8055163 0.3512 10.8500734 6.0784 7.58877506 7.6708 8.5206317"></polygon>
                    <polygon fill="#5C5C5C" points="1.9436 11.8055163 1.9424 13.1791154 7.6708 9.91781702 7.6708 8.5206317"></polygon>
                    <polygon fill="#FFFFFF" points="6.0216 7.60236713 6.0216 1.07657226 0.3512 4.37384965 0.3512 10.8500734"></polygon>
                    <polygon fill="#000000" points="1.9436 11.8055163 0.3512 10.8500734 0.3512 12.2888345 1.9424 13.1791154"></polygon>
                </g>
                <g transform="translate(37.600000, 94.744755)" id="Path">
                    <polygon fill="#000000" points="7.586 4.08721678 0.6876 0.0743566434 0.6876 8.02612005 7.586 12.0018019"></polygon>
                    <polygon fill="#1A1A1A" points="5.9952 11.5188834 7.586 10.5630408 1.8596 7.30174242 0.268 8.2343986"></polygon>
                    <polygon fill="#5C5C5C" points="5.9952 11.5188834 5.9952 12.8936818 0.268 9.63118415 0.268 8.2343986"></polygon>
                    <polygon fill="#FFFFFF" points="1.9172 7.31613403 1.9172 0.790339161 7.586 4.08721678 7.586 10.5630408"></polygon>
                    <polygon fill="#333333" points="5.9952 11.5188834 7.586 10.5630408 7.586 12.0018019 5.9952 12.8936818"></polygon>
                </g>
                <g transform="translate(20.400000, 84.750583)" id="Path">
                    <polygon fill="#000000" points="7.5592 4.14078555 0.66 0.127525641 0.66 8.07848951 7.5592 12.0557704"></polygon>
                    <polygon fill="#1A1A1A" points="5.9672 11.5724522 7.5592 10.6166096 1.8332 7.35451166 0.2392 8.28716783"></polygon>
                    <polygon fill="#5C5C5C" points="5.9672 11.5724522 5.9672 12.946451 0.2392 9.68515268 0.2392 8.28716783"></polygon>
                    <polygon fill="#FFFFFF" points="1.8904 7.3685035 1.8904 0.842708625 7.5592 4.14078555 7.5592 10.6166096"></polygon>
                    <polygon fill="#333333" points="5.9672 11.5724522 7.5592 10.6166096 7.5592 12.0557704 5.9672 12.946451"></polygon>
                </g>
                <g transform="translate(37.600000, 110.735431)" id="Path">
                    <polygon fill="#000000" points="7.586 4.20954545 0.6876 0.196285548 0.6876 8.14764918 7.586 12.1249301"></polygon>
                    <polygon fill="#1A1A1A" points="5.9952 11.6404126 7.586 10.6857692 1.8596 7.4240711 0.268 8.35632751"></polygon>
                    <polygon fill="#5C5C5C" points="5.9952 11.6404126 5.9952 13.0156107 0.268 9.75311305 0.268 8.35632751"></polygon>
                    <polygon fill="#FFFFFF" points="1.9172 7.43766317 1.9172 0.912268065 7.586 4.20954545 7.586 10.6857692"></polygon>
                    <polygon fill="#333333" points="5.9952 11.6404126 7.586 10.6857692 7.586 12.1249301 5.9952 13.0156107"></polygon>
                </g>
                <g transform="translate(20.400000, 100.741259)" id="Path">
                    <polygon fill="#000000" points="7.5592 4.26271445 0.66 0.249054779 0.66 8.20001865 7.5592 12.1772995"></polygon>
                    <polygon fill="#1A1A1A" points="5.9672 11.6931818 7.5592 10.7385385 1.8332 7.47763986 0.2392 8.40909674"></polygon>
                    <polygon fill="#5C5C5C" points="5.9672 11.6931818 5.9672 13.06838 0.2392 9.80628205 0.2392 8.40909674"></polygon>
                    <polygon fill="#FFFFFF" points="1.8904 7.4904324 1.8904 0.96583683 7.5592 4.26271445 7.5592 10.7385385"></polygon>
                    <polygon fill="#333333" points="5.9672 11.6931818 7.5592 10.7385385 7.5592 12.1772995 5.9672 13.06838"></polygon>
                </g>
                <g transform="translate(37.600000, 126.726107)" id="Path">
                    <polygon fill="#000000" points="7.586 4.33107459 0.6876 0.317414918 0.6876 8.26957809 7.586 12.2460594"></polygon>
                    <polygon fill="#1A1A1A" points="5.9952 11.7623415 7.586 10.8076981 1.8596 7.54560023 0.268 8.47825641"></polygon>
                    <polygon fill="#5C5C5C" points="5.9952 11.7623415 5.9952 13.1371399 0.268 9.87504196 0.268 8.47825641"></polygon>
                    <polygon fill="#FFFFFF" points="1.9172 7.55959207 1.9172 1.0337972 7.586 4.33107459 7.586 10.8076981"></polygon>
                    <polygon fill="#333333" points="5.9952 11.7623415 7.586 10.8076981 7.586 12.2460594 5.9952 13.1371399"></polygon>
                </g>
                <g transform="translate(20.400000, 116.731935)" id="Path">
                    <polygon fill="#000000" points="7.5592 4.38424359 0.66 0.370983683 0.66 8.32194755 7.5592 12.2988287"></polygon>
                    <polygon fill="#1A1A1A" points="5.9672 11.8155105 7.5592 10.8604674 1.8332 7.59876923 0.2392 8.53062587"></polygon>
                    <polygon fill="#5C5C5C" points="5.9672 11.8155105 5.9672 13.1903089 0.2392 9.92781119 0.2392 8.53062587"></polygon>
                    <polygon fill="#FFFFFF" points="1.8904 7.61276107 1.8904 1.0869662 7.5592 4.38424359 7.5592 10.8604674"></polygon>
                    <polygon fill="#333333" points="5.9672 11.8155105 7.5592 10.8604674 7.5592 12.2988287 5.9672 13.1903089"></polygon>
                </g>
                <g transform="translate(86.400000, 111.135198)" id="Path">
                    <polygon fill="#000000" points="0.1324 4.01645804 7.0324 0.0035979021 7.0324 7.95536131 0.1324 11.9318427"></polygon>
                    <polygon fill="#1A1A1A" points="1.7252 11.4481247 0.1324 10.4934814 5.8604 7.23098368 7.4532 8.16403963"></polygon>
                    <polygon fill="#5C5C5C" points="1.7252 11.4481247 1.7252 12.8225233 7.4532 9.56122494 7.4532 8.16403963"></polygon>
                    <polygon fill="#FFFFFF" points="5.8028 7.24577506 5.8028 0.71958042 0.1324 4.01645804 0.1324 10.4934814"></polygon>
                    <polygon fill="#000000" points="1.7252 11.4481247 0.1324 10.4934814 0.1324 11.9318427 1.7252 12.8225233"></polygon>
                </g>
                <g transform="translate(100.000000, 103.139860)" id="Path">
                    <polygon fill="#000000" points="0.3152 4.05963287 7.214 0.0467727273 7.2152 7.9977366 0.3152 11.9750175"></polygon>
                    <polygon fill="#1A1A1A" points="1.9072 11.4916993 0.3152 10.5362564 6.0428 7.27495804 7.6344 8.20641492"></polygon>
                    <polygon fill="#5C5C5C" points="1.9072 11.4916993 1.9072 12.8656981 7.6344 9.60320047 7.6344 8.20641492"></polygon>
                    <polygon fill="#FFFFFF" points="5.984 7.28815035 5.984 0.762355478 0.3152 4.05963287 0.3152 10.5362564"></polygon>
                    <polygon fill="#000000" points="1.9072 11.4916993 0.3152 10.5362564 0.3152 11.9750175 1.9072 12.8656981"></polygon>
                </g>
                <g transform="translate(114.000000, 95.144522)" id="Path">
                    <polygon fill="#000000" points="0.0972 4.10200816 6.9964 0.0887482517 6.9972 8.04051166 0.0972 12.0173928"></polygon>
                    <polygon fill="#1A1A1A" points="1.6908 11.5340746 0.0972 10.5790315 5.8244 7.31693357 7.4172 8.24879021"></polygon>
                    <polygon fill="#5C5C5C" points="1.6908 11.5340746 1.6908 12.9084732 7.4172 9.64557576 7.4172 8.24879021"></polygon>
                    <polygon fill="#FFFFFF" points="5.7664 7.33092541 5.7664 0.804730769 0.0972 4.10200816 0.0972 10.5790315"></polygon>
                    <polygon fill="#000000" points="1.6908 11.5340746 0.0972 10.5790315 0.0972 12.0173928 1.6908 12.9084732"></polygon>
                </g>
            </g>
            <g id="Group" transform="translate(228.800000, 303.023310)" fill-rule="nonzero">
                <ellipse id="Oval" fill="#998675" cx="5.6784" cy="23.1497016" rx="1" ry="1"></ellipse>
                <rect id="Rectangle" fill="#998675" x="5.0284" y="19.5310117" width="1.3" height="3.61868998"></rect>
                <polygon id="Path" fill="#22B573" points="5.6776 13.5920746 11.2632 16.8145956 5.6776 20.0371166 0.0928 16.8145956"></polygon>
                <polygon id="Path" fill="#4EC48F" points="0.0928 16.8145956 5.6776 0.0139918415 5.6776 20.0371166"></polygon>
                <polygon id="Path" fill="#1A8856" points="11.2632 16.8145956 5.6776 0.0139918415 5.6776 20.0371166"></polygon>
            </g>
            <g id="Group" transform="translate(310.000000, 256.650350)" fill-rule="nonzero">
                <ellipse id="Oval" fill="#998675" cx="5.866" cy="23.1840816" rx="1" ry="1"></ellipse>
                <rect id="Rectangle" fill="#998675" x="5.2156" y="19.5653916" width="1.3004" height="3.61868998"></rect>
                <polygon id="Path" fill="#22B573" points="5.8648 13.625655 11.45 16.8489755 5.8648 20.0718963 0.2792 16.8489755"></polygon>
                <polygon id="Path" fill="#4EC48F" points="0.2792 16.8489755 5.8648 0.0483717949 5.8648 20.0718963"></polygon>
                <polygon id="Path" fill="#1A8856" points="11.45 16.8489755 5.8648 0.0483717949 5.8648 20.0718963"></polygon>
            </g>
            <path d="M190.778,265.801414 C190.778,261.993634 187.5056,260.105135 187.5056,260.105135 L157.546,242.60454 C157.546,242.60454 154.2732,240.241917 154.2732,244.564997 C154.2732,247.95542 154.2732,311.257709 154.2732,319.256645 C154.2732,322.863741 157.546,324.52877 157.546,324.52877 L187.5056,342.203265 C187.5056,342.203265 190.778,344.142134 190.778,340.406712 C190.778,332.187505 190.778,268.531822 190.778,265.801414 Z" id="Path" fill="#333333" fill-rule="nonzero"></path>
            <path d="M190.778,265.801414 C190.778,261.993634 187.5056,260.105135 187.5056,260.105135 L159.1508,243.533598 C159.1508,243.533598 155.9728,241.604323 155.2436,242.074848 C155.2436,242.074848 158.0136,240.217531 159.792,241.254127 C161.5672,242.291922 189.75,258.754723 189.75,258.754723 C189.75,258.754723 193.0236,260.643221 193.0236,264.450601 C193.0236,267.181809 193.0236,330.836692 193.0236,339.056699 C193.0236,340.367535 192.7052,341.163071 192.2004,341.440509 L190.0544,342.453918 C190.0544,342.453918 190.7752,342.10812 190.7752,340.61659 C190.7752,339.125859 190.778,338.173614 190.778,338.173614 C190.778,326.871005 190.778,268.333937 190.778,265.801414 Z" id="Path" fill="#B3B3B3" fill-rule="nonzero"></path>
            <polygon id="Path" fill="#4EC48F" fill-rule="nonzero" points="185.9016 266.56217 159.152 251.002443 159.152 318.165681 185.9756 333.838542"></polygon>
            <polygon id="Path" fill="#9EC4D5" fill-rule="nonzero" opacity="0.5" points="177.1372 269.867043 150.3884 254.306516 150.3884 321.469754 177.2096 337.143415"></polygon>
        </g>
    </g>
</svg>