<?xml version="1.0" encoding="UTF-8"?>
<svg width="401px" height="357px" viewBox="0 0 401 357" version="1.1" xmlns="http://www.w3.org/2000/svg" xmlns:xlink="http://www.w3.org/1999/xlink">
    <!-- Generator: Sketch 55.1 (78136) - https://sketchapp.com -->
    <title>Artboard</title>
    <desc>Created with Sketch.</desc>
    <g id="Artboard" stroke="none" stroke-width="1" fill="none" fill-rule="evenodd">
        <g id="Group-Copy" transform="translate(22.000000, 17.000000)">
            <polygon id="Fill-6" fill="#191818" points="157.906285 261.842553 219.31391 226.319113 157.913844 190.8 96.4981203 226.319113"></polygon>
            <polygon id="Fill-7" fill="#535353" points="157.906015 263.195745 157.906015 262.017037 219.31391 226.659574 219.31391 227.837744"></polygon>
            <polygon id="Fill-8" fill="#292828" points="157.906015 263.195745 157.906015 262.017037 96.4981203 226.659574 96.4981203 227.837744"></polygon>
            <polygon id="Fill-9" fill="#1A1A1A" points="116.742481 61.5702128 157.906286 37.8893617 199.069549 61.5702128 157.906286 85.2510638"></polygon>
            <polygon id="Fill-10" fill="#333333" points="198.947428 61.5702128 199.069549 226.561336 157.906015 250.340426 157.906015 85.3498445"></polygon>
            <polygon id="Fill-11" fill="#000000" points="157.906015 85.3498445 116.742481 61.5702128 116.742481 226.561336 157.906015 250.340426"></polygon>
            <g id="Group-258" transform="translate(116.742481, 33.829787)" fill="#9EC4D5">
                <polygon id="Fill-12" points="45.6064068 55.1713258 49.6368488 52.8324461 49.6433165 57.5253824 45.6064068 59.8615519"></polygon>
                <polygon id="Fill-14" points="53.7783731 50.5145432 57.808815 48.1745794 57.8163606 52.8675157 53.7783731 55.2047693"></polygon>
                <polygon id="Fill-16" points="66.0379124 43.3082462 70.0683543 40.9682825 70.074822 45.6612188 66.0379124 47.9984723"></polygon>
                <polygon id="Fill-18" points="74.2114417 38.5622989 78.2418836 36.2223352 78.2483513 40.9152715 74.2114417 43.252525"></polygon>
                <polygon id="Fill-20" points="45.6064068 64.7072336 49.6368488 62.3667278 49.6433165 67.0602062 45.6064068 69.3974597"></polygon>
                <polygon id="Fill-22" points="53.7783731 60.05018 57.808815 57.7102162 57.8163606 62.4031525 53.7783731 64.739322"></polygon>
                <polygon id="Fill-24" points="66.0379124 52.8427989 70.0683543 50.5039193 70.074822 55.1968556 66.0379124 57.5330251"></polygon>
                <polygon id="Fill-26" points="74.2114417 48.0981525 78.2418836 45.7576468 78.2483513 50.4511251 74.2114417 52.7872946"></polygon>
                <polygon id="Fill-28" points="45.6064068 74.2428704 49.6368488 71.9029067 49.6433165 76.595843 45.6064068 78.9320125"></polygon>
                <polygon id="Fill-30" points="53.7783731 69.5850037 57.808815 67.244498 57.8163606 71.9385183 53.7783731 74.2752299"></polygon>
                <polygon id="Fill-32" points="66.0379124 62.3787068 70.0683543 60.038743 70.074822 64.7316793 66.0379124 67.0689329"></polygon>
                <polygon id="Fill-34" points="74.2114417 57.6327595 78.2418836 55.2927957 78.2483513 59.9868161 74.2114417 62.3229856"></polygon>
                <polygon id="Fill-36" points="45.6064068 83.7774231 49.6368488 81.4374594 49.6433165 86.1314798 45.6064068 88.4676493"></polygon>
                <polygon id="Fill-38" points="53.7783731 79.1206405 57.808815 76.7806768 57.8163606 81.4736131 53.7783731 83.8108667"></polygon>
                <polygon id="Fill-40" points="66.0379124 71.9143436 70.0683543 69.5743798 70.074822 74.2673162 66.0379124 76.6034857"></polygon>
                <polygon id="Fill-42" points="74.2114417 67.1683421 78.2418836 64.8283783 78.2483513 69.5213147 74.2114417 71.8574841"></polygon>
                <polygon id="Fill-44" points="45.6064068 93.313331 49.6368488 90.9733672 49.6433165 95.6663035 45.6064068 98.002473"></polygon>
                <polygon id="Fill-46" points="53.7783731 88.6552475 57.808815 86.3163678 57.8163606 91.0093041 53.7783731 93.3454736"></polygon>
                <polygon id="Fill-48" points="66.0379124 81.4491673 70.0683543 79.1086616 70.074822 83.802682 66.0379124 86.1393935"></polygon>
                <polygon id="Fill-50" points="74.2114417 76.70322 78.2418836 74.3643404 78.2483513 79.0572767 74.2114417 81.3934462"></polygon>
                <polygon id="Fill-52" points="45.6064068 102.847884 49.6368488 100.50792 49.6433165 105.20194 45.6064068 107.53811"></polygon>
                <polygon id="Fill-54" points="53.7783731 98.1911011 57.808815 95.8511374 57.8163606 100.544074 53.7783731 102.881327"></polygon>
                <polygon id="Fill-56" points="66.0379124 90.9848042 70.0683543 88.6448404 70.074822 93.3377767 66.0379124 95.6750303"></polygon>
                <polygon id="Fill-58" points="74.2114417 86.2388568 78.2418836 83.8988931 78.2483513 88.5918294 74.2114417 90.929083"></polygon>
                <polygon id="Fill-60" points="45.6064068 112.383521 49.6368488 110.043557 49.6433165 114.736493 45.6064068 117.073205"></polygon>
                <polygon id="Fill-62" points="53.7783731 107.725708 57.808815 105.386828 57.8163606 110.079765 53.7783731 112.415934"></polygon>
                <polygon id="Fill-64" points="66.0379124 100.519357 70.0683543 98.1804772 70.074822 102.873414 66.0379124 105.209583"></polygon>
                <polygon id="Fill-66" points="74.2114417 95.7736806 78.2418836 93.4342589 78.2483513 98.1277373 74.2114417 100.463907"></polygon>
                <polygon id="Fill-68" points="45.6064068 121.918886 49.6368488 119.578923 49.6433165 124.271859 45.6064068 126.60857"></polygon>
                <polygon id="Fill-70" points="53.7783731 117.261833 57.808815 114.921327 57.8163606 119.614805 53.7783731 121.950975"></polygon>
                <polygon id="Fill-72" points="66.0379124 110.055265 70.0683543 107.715301 70.074822 112.408237 66.0379124 114.745491"></polygon>
                <polygon id="Fill-74" points="74.2114417 105.309317 78.2418836 102.969354 78.2483513 107.66229 74.2114417 109.999544"></polygon>
                <polygon id="Fill-76" points="45.6064068 131.453981 49.6368488 129.114559 49.6433165 133.807496 45.6064068 136.143665"></polygon>
                <polygon id="Fill-78" points="53.7783731 126.796656 57.808815 124.456693 57.8163606 129.150171 53.7783731 131.486883"></polygon>
                <polygon id="Fill-80" points="66.0379124 119.590359 70.0683543 117.250396 70.074822 121.944416 66.0379124 124.280586"></polygon>
                <polygon id="Fill-82" points="74.2114417 114.8449 78.2418836 112.504936 78.2483513 117.198415 74.2114417 119.534584"></polygon>
                <polygon id="Fill-84" points="45.6064068 140.989347 49.6368488 138.648841 49.6433165 143.342861 45.6064068 145.679031"></polygon>
                <polygon id="Fill-86" points="53.7783731 136.332293 57.808815 133.991787 57.8163606 138.685808 53.7783731 141.021977"></polygon>
                <polygon id="Fill-88" points="66.0379124 129.125996 70.0683543 126.785491 70.074822 131.479511 66.0379124 133.814596"></polygon>
                <polygon id="Fill-90" points="74.2114417 124.380266 78.2418836 122.040302 78.2483513 126.733238 74.2114417 129.06995"></polygon>
                <polygon id="Fill-92" points="45.6064068 150.524713 49.6368488 148.185291 49.6433165 152.878227 45.6064068 155.215481"></polygon>
                <polygon id="Fill-94" points="53.7783731 145.866629 57.808815 143.528292 57.8163606 148.221228 53.7783731 150.557397"></polygon>
                <polygon id="Fill-96" points="66.0379124 138.660332 70.0683543 136.320911 70.074822 141.014931 66.0379124 143.3511"></polygon>
                <polygon id="Fill-98" points="74.2114417 133.915361 78.2418836 131.575939 78.2483513 136.268875 74.2114417 138.605045"></polygon>
                <polygon id="Fill-100" points="45.6064068 160.060078 49.6368488 157.720657 49.6433165 162.413593 45.6064068 164.749763"></polygon>
                <polygon id="Fill-102" points="53.7783731 155.403025 57.808815 153.062519 57.8163606 157.755455 53.7783731 160.092709"></polygon>
                <polygon id="Fill-104" points="66.0379124 148.196728 70.0683543 145.856222 70.074822 150.549158 66.0379124 152.886412"></polygon>
                <polygon id="Fill-106" points="74.2114417 143.450726 78.2418836 141.110221 78.2483513 145.803157 74.2114417 148.14041"></polygon>
                <polygon id="Fill-108" points="45.6064068 169.595444 49.6368488 167.254938 49.6433165 171.947875 45.6064068 174.285128"></polygon>
                <polygon id="Fill-110" points="53.7783731 164.938391 57.808815 162.598969 57.8163606 167.291905 53.7783731 169.626991"></polygon>
                <polygon id="Fill-112" points="66.0379124 157.73101 70.0683543 155.392672 70.074822 160.085608 66.0379124 162.420694"></polygon>
                <polygon id="Fill-114" points="74.2114417 152.985062 78.2418836 150.646725 78.2483513 155.339661 74.2114417 157.67583"></polygon>
                <polygon id="Fill-116" points="45.6064068 179.12978 49.6368488 176.791443 49.6433165 181.484379 45.6064068 183.820548"></polygon>
                <polygon id="Fill-118" points="53.7783731 174.472727 57.808815 172.133305 57.8163606 176.827325 53.7783731 179.163495"></polygon>
                <polygon id="Fill-120" points="66.0379124 167.267459 70.0683543 164.926954 70.074822 169.61989 66.0379124 171.957144"></polygon>
                <polygon id="Fill-122" points="74.2114417 162.521458 78.2418836 160.180952 78.2483513 164.873889 74.2114417 167.211142"></polygon>
                <polygon id="Fill-124" points="45.6064068 188.666176 49.6368488 186.32567 49.6433165 191.018606 45.6064068 193.35586"></polygon>
                <polygon id="Fill-126" points="53.7783731 184.009122 57.808815 181.668616 57.8163606 186.361553 53.7783731 188.697722"></polygon>
                <polygon id="Fill-128" points="66.0379124 176.802825 70.0683543 174.462319 70.074822 179.155256 66.0379124 181.491425"></polygon>
                <polygon id="Fill-130" points="74.2114417 172.056824 78.2418836 169.716318 78.2483513 174.409254 74.2114417 176.745424"></polygon>
                <polygon id="Fill-132" points="37.3417911 55.1713258 33.3113492 52.8324461 33.3043425 57.5253824 37.3417911 59.8615519"></polygon>
                <polygon id="Fill-134" points="29.1687469 50.5145432 25.138305 48.1745794 25.1318373 52.8675157 29.1687469 55.2047693"></polygon>
                <polygon id="Fill-136" points="16.9097466 43.3082462 12.8793047 40.9682825 12.872298 45.6612188 16.9097466 47.9984723"></polygon>
                <polygon id="Fill-138" points="8.73724137 38.5622989 4.70679945 36.2223352 4.6997928 40.9152715 8.73724137 43.252525"></polygon>
                <polygon id="Fill-140" points="37.3417911 64.7072336 33.3113492 62.3667278 33.3043425 67.0602062 37.3417911 69.3974597"></polygon>
                <polygon id="Fill-142" points="29.1687469 60.05018 25.138305 57.7102162 25.1318373 62.4031525 29.1687469 64.739322"></polygon>
                <polygon id="Fill-144" points="16.9097466 52.8427989 12.8793047 50.5039193 12.872298 55.1968556 16.9097466 57.5330251"></polygon>
                <polygon id="Fill-146" points="8.73724137 48.0981525 4.70679945 45.7576468 4.6997928 50.4511251 8.73724137 52.7872946"></polygon>
                <polygon id="Fill-148" points="37.3417911 74.2428704 33.3113492 71.9029067 33.3043425 76.595843 37.3417911 78.9320125"></polygon>
                <polygon id="Fill-150" points="29.1687469 69.5850037 25.138305 67.244498 25.1318373 71.9385183 29.1687469 74.2752299"></polygon>
                <polygon id="Fill-152" points="16.9097466 62.3787068 12.8793047 60.038743 12.872298 64.7316793 16.9097466 67.0689329"></polygon>
                <polygon id="Fill-154" points="8.73724137 57.6327595 4.70679945 55.2927957 4.6997928 59.9868161 8.73724137 62.3229856"></polygon>
                <polygon id="Fill-156" points="37.3417911 83.7774231 33.3113492 81.4374594 33.3043425 86.1314798 37.3417911 88.4676493"></polygon>
                <polygon id="Fill-158" points="29.1687469 79.1206405 25.138305 76.7806768 25.1318373 81.4736131 29.1687469 83.8108667"></polygon>
                <polygon id="Fill-160" points="16.9097466 71.9143436 12.8793047 69.5743798 12.872298 74.2673162 16.9097466 76.6034857"></polygon>
                <polygon id="Fill-162" points="8.73724137 67.1683421 4.70679945 64.8283783 4.6997928 69.5213147 8.73724137 71.8574841"></polygon>
                <polygon id="Fill-164" points="37.3417911 93.313331 33.3113492 90.9733672 33.3043425 95.6663035 37.3417911 98.002473"></polygon>
                <polygon id="Fill-166" points="29.1687469 88.6552475 25.138305 86.3163678 25.1318373 91.0093041 29.1687469 93.3454736"></polygon>
                <polygon id="Fill-168" points="16.9097466 81.4491673 12.8793047 79.1086616 12.872298 83.802682 16.9097466 86.1393935"></polygon>
                <polygon id="Fill-170" points="8.73724137 76.70322 4.70679945 74.3643404 4.6997928 79.0572767 8.73724137 81.3934462"></polygon>
                <polygon id="Fill-172" points="37.3417911 102.847884 33.3113492 100.50792 33.3043425 105.20194 37.3417911 107.53811"></polygon>
                <polygon id="Fill-174" points="29.1687469 98.1911011 25.138305 95.8511374 25.1318373 100.544074 29.1687469 102.881327"></polygon>
                <polygon id="Fill-176" points="16.9097466 90.9848042 12.8793047 88.6448404 12.872298 93.3377767 16.9097466 95.6750303"></polygon>
                <polygon id="Fill-178" points="8.73724137 86.2388568 4.70679945 83.8988931 4.6997928 88.5918294 8.73724137 90.929083"></polygon>
                <polygon id="Fill-180" points="37.3417911 112.383521 33.3113492 110.043557 33.3043425 114.736493 37.3417911 117.073205"></polygon>
                <polygon id="Fill-182" points="29.1687469 107.725708 25.138305 105.386828 25.1318373 110.079765 29.1687469 112.415934"></polygon>
                <polygon id="Fill-184" points="16.9097466 100.519357 12.8793047 98.1804772 12.872298 102.873414 16.9097466 105.209583"></polygon>
                <polygon id="Fill-186" points="8.73724137 95.7736806 4.70679945 93.4342589 4.6997928 98.1277373 8.73724137 100.463907"></polygon>
                <polygon id="Fill-188" points="37.3417911 121.918886 33.3113492 119.578923 33.3043425 124.271859 37.3417911 126.60857"></polygon>
                <polygon id="Fill-190" points="29.1687469 117.261833 25.138305 114.921327 25.1318373 119.614805 29.1687469 121.950975"></polygon>
                <polygon id="Fill-192" points="16.9097466 110.055265 12.8793047 107.715301 12.872298 112.408237 16.9097466 114.745491"></polygon>
                <polygon id="Fill-194" points="8.73724137 105.309317 4.70679945 102.969354 4.6997928 107.66229 8.73724137 109.999544"></polygon>
                <polygon id="Fill-196" points="37.3417911 131.453981 33.3113492 129.114559 33.3043425 133.807496 37.3417911 136.143665"></polygon>
                <polygon id="Fill-198" points="29.1687469 126.796656 25.138305 124.456693 25.1318373 129.150171 29.1687469 131.486883"></polygon>
                <polygon id="Fill-200" points="16.9097466 119.590359 12.8793047 117.250396 12.872298 121.944416 16.9097466 124.280586"></polygon>
                <polygon id="Fill-202" points="8.73724137 114.8449 4.70679945 112.504936 4.6997928 117.198415 8.73724137 119.534584"></polygon>
                <polygon id="Fill-204" points="37.3417911 140.989347 33.3113492 138.648841 33.3043425 143.342861 37.3417911 145.679031"></polygon>
                <polygon id="Fill-206" points="29.1687469 136.332293 25.138305 133.991787 25.1318373 138.685808 29.1687469 141.021977"></polygon>
                <polygon id="Fill-208" points="16.9097466 129.125996 12.8793047 126.785491 12.872298 131.479511 16.9097466 133.814596"></polygon>
                <polygon id="Fill-210" points="8.73724137 124.380266 4.70679945 122.040302 4.6997928 126.733238 8.73724137 129.06995"></polygon>
                <polygon id="Fill-212" points="37.3417911 150.524713 33.3113492 148.185291 33.3043425 152.878227 37.3417911 155.215481"></polygon>
                <polygon id="Fill-214" points="29.1687469 145.866629 25.138305 143.528292 25.1318373 148.221228 29.1687469 150.557397"></polygon>
                <polygon id="Fill-216" points="16.9097466 138.660332 12.8793047 136.320911 12.872298 141.014931 16.9097466 143.3511"></polygon>
                <polygon id="Fill-218" points="8.73724137 133.915361 4.70679945 131.575939 4.6997928 136.268875 8.73724137 138.605045"></polygon>
                <polygon id="Fill-220" points="37.3417911 160.060078 33.3113492 157.720657 33.3043425 162.413593 37.3417911 164.749763"></polygon>
                <polygon id="Fill-222" points="29.1687469 155.403025 25.138305 153.062519 25.1318373 157.755455 29.1687469 160.092709"></polygon>
                <polygon id="Fill-224" points="16.9097466 148.196728 12.8793047 145.856222 12.872298 150.549158 16.9097466 152.886412"></polygon>
                <polygon id="Fill-226" points="8.73724137 143.450726 4.70679945 141.110221 4.6997928 145.803157 8.73724137 148.14041"></polygon>
                <polygon id="Fill-228" points="37.3417911 169.595444 33.3113492 167.254938 33.3043425 171.947875 37.3417911 174.285128"></polygon>
                <polygon id="Fill-230" points="29.1687469 164.938391 25.138305 162.598969 25.1318373 167.291905 29.1687469 169.626991"></polygon>
                <polygon id="Fill-232" points="16.9097466 157.73101 12.8793047 155.392672 12.872298 160.085608 16.9097466 162.420694"></polygon>
                <polygon id="Fill-234" points="8.73724137 152.985062 4.70679945 150.646725 4.6997928 155.339661 8.73724137 157.67583"></polygon>
                <polygon id="Fill-236" points="37.3417911 179.12978 33.3113492 176.791443 33.3043425 181.484379 37.3417911 183.820548"></polygon>
                <polygon id="Fill-238" points="29.1687469 174.472727 25.138305 172.133305 25.1318373 176.827325 29.1687469 179.163495"></polygon>
                <polygon id="Fill-240" points="16.9097466 167.267459 12.8793047 164.926954 12.872298 169.61989 16.9097466 171.957144"></polygon>
                <polygon id="Fill-242" points="8.73724137 162.521458 4.70679945 160.180952 4.6997928 164.873889 8.73724137 167.211142"></polygon>
                <polygon id="Fill-244" points="37.3417911 188.666176 33.3113492 186.32567 33.3043425 191.018606 37.3417911 193.35586"></polygon>
                <polygon id="Fill-246" points="29.1687469 184.009122 25.138305 181.668616 25.1318373 186.361553 29.1687469 188.697722"></polygon>
                <polygon id="Fill-248" points="16.9097466 176.802825 12.8793047 174.462319 12.872298 179.155256 16.9097466 181.491425"></polygon>
                <polygon id="Fill-250" points="8.73724137 172.056824 4.70679945 169.716318 4.6997928 174.409254 8.73724137 176.745424"></polygon>
                <polygon id="Fill-252" points="41.470434 0.26706049 41.5922419 4.09490944 0.533799102 27.8642145 0.533799102 24.0369076"></polygon>
                <polygon id="Fill-254" points="0.706863411 24.0366366 0.585055457 27.8644855 41.6429593 51.6332485 41.6429593 47.8059416"></polygon>
                <polygon id="Fill-256" points="41.6615 0.26706049 41.540231 4.09490944 82.5981348 27.8642145 82.5981348 24.0369076"></polygon>
            </g>
            <polygon id="Fill-259" fill="#1A1A1A" points="129.56391 16.5760514 158.243149 0 186.922932 16.5760514 158.243149 33.1531915"></polygon>
            <polygon id="Fill-260" fill="#1A1A1A" points="132.93797 16.5765957 158.24315 2.02978723 183.548872 16.5765957 158.24315 31.1234043"></polygon>
            <polygon id="Fill-261" fill="#333333" points="186.16401 16.9148936 186.24812 60.7095321 157.906015 77.1319149 157.906015 33.3383549"></polygon>
            <polygon id="Fill-262" fill="#000000" points="157.906015 33.3383549 129.56391 16.9148936 129.56391 60.7095321 157.906015 77.1319149"></polygon>
            <g id="Group-275" transform="translate(132.937970, 24.357447)" fill="#9EC4D5">
                <polygon id="Fill-263" points="29.1025363 12.1505552 49.6783766 0.366789101 49.6783766 9.79304826 29.1025363 21.5768144"></polygon>
                <polygon id="Fill-265" points="29.1025363 26.2761079 49.6783766 14.4923418 49.6783766 23.9191394 29.1025363 35.7029054"></polygon>
                <polygon id="Fill-267" points="29.1025363 40.4019298 49.6783766 28.6181637 49.6783766 38.0454996 29.1025363 49.8292657"></polygon>
                <polygon id="Fill-269" points="20.8038637 12.1505552 0.228023386 0.366789101 0.228023386 9.79304826 20.8038637 21.5768144"></polygon>
                <polygon id="Fill-271" points="20.8038637 26.2761079 0.228023386 14.4923418 0.228023386 23.9191394 20.8038637 35.7029054"></polygon>
                <polygon id="Fill-273" points="20.8038637 40.4019298 0.228023386 28.6181637 0.228023386 38.0454996 20.8038637 49.8292657"></polygon>
            </g>
            <polygon id="Fill-276" fill="#333333" points="157.906015 2.02978723 157.906015 3.99103253 134.578854 17.5914894 132.93797 16.6314316"></polygon>
            <polygon id="Fill-277" fill="#000000" points="157.906015 2.02978723 157.906015 3.99103253 181.233711 17.5914894 182.87406 16.6314316"></polygon>
            <polygon id="Fill-278" fill="#333333" points="157.906015 2.02978723 157.906015 3.99103253 134.578854 17.5914894 132.93797 16.6314316"></polygon>
            <polygon id="Fill-279" fill="#9EC4D5" points="198.947428 57.5106383 199.069549 61.3584352 157.906015 85.2510638 157.906015 81.4038118"></polygon>
            <polygon id="Fill-281" fill="#191818" points="61.4084347 311.234043 122.815789 275.710602 61.415994 240.191489 0 275.710602"></polygon>
            <polygon id="Fill-282" fill="#4D4D4D" points="16.1954887 166.103444 61.4076237 140.055319 106.620301 166.103444 61.4076237 192.153191"></polygon>
            <polygon id="Fill-283" fill="#1A1A1A" points="20.2443609 166.441201 61.4081661 142.761702 102.571429 166.441201 61.4081661 190.123404"></polygon>
            <polygon id="Fill-284" fill="#333333" points="106.620301 275.647033 106.620301 166.442553 61.4078947 192.557222 61.4078947 301.761702"></polygon>
            <polygon id="Fill-285" fill="#000000" points="61.4078947 301.761702 61.4078947 192.557222 16.1954887 166.442553 16.1954887 275.648118"></polygon>
            <polygon id="Fill-286" fill="#000000" points="65.4567669 204.09648 69.5045763 201.625532 69.5056391 211.377869 65.4567669 213.804255"></polygon>
            <polygon id="Fill-287" fill="#1A1A1A" points="65.4567669 213.804255 65.4567669 211.993905 68.0665597 210.421277 69.5056391 211.315594"></polygon>
            <polygon id="Fill-288" fill="#9EC4D5" points="68.156015 210.928496 68.156015 202.978723 65.4567669 204.561596 65.4567669 212.451064"></polygon>
            <polygon id="Fill-290" fill="#333333" points="57.3590226 204.09648 53.3106818 201.625532 53.3101504 211.377869 57.3590226 213.804255"></polygon>
            <polygon id="Fill-291" fill="#1A1A1A" points="57.3590226 213.804255 57.3590226 211.993905 54.7486983 210.421277 53.3101504 211.315594"></polygon>
            <polygon id="Fill-292" fill="#9EC4D5" points="54.6597744 210.928496 54.6597744 202.978723 57.3590226 204.561596 57.3590226 212.451064"></polygon>
            <polygon id="Fill-294" fill="#333333" points="49.2612782 199.36031 45.2129375 196.889362 45.212406 206.641698 49.2612782 209.068085"></polygon>
            <polygon id="Fill-295" fill="#1A1A1A" points="49.2612782 209.068085 49.2612782 207.257734 46.6511428 205.685106 45.212406 206.579424"></polygon>
            <polygon id="Fill-296" fill="#9EC4D5" points="46.5620301 206.192148 46.5620301 198.242553 49.2612782 199.824504 49.2612782 207.714894"></polygon>
            <polygon id="Fill-298" fill="#333333" points="41.1635338 194.62481 37.1151931 192.153191 37.1146617 201.904303 41.1635338 204.331915"></polygon>
            <polygon id="Fill-299" fill="#1A1A1A" points="41.1635338 204.331915 41.1635338 202.521564 38.552867 200.948936 37.1146617 201.842111"></polygon>
            <polygon id="Fill-300" fill="#9EC4D5" points="38.4642857 201.455978 38.4642857 193.506383 41.1635338 195.089441 41.1635338 202.978723"></polygon>
            <polygon id="Fill-302" fill="#333333" points="33.0657895 189.889528 29.0169173 187.417021 29.0169173 197.168355 33.0657895 199.595745"></polygon>
            <polygon id="Fill-303" fill="#1A1A1A" points="33.0657895 199.595745 33.0657895 197.785394 30.4545911 196.212766 29.0169173 197.105941"></polygon>
            <polygon id="Fill-304" fill="#9EC4D5" points="30.3665414 196.719808 30.3665414 188.770213 33.0657895 190.353271 33.0657895 198.242553"></polygon>
            <polygon id="Fill-306" fill="#333333" points="24.2932331 185.15247 20.2443609 182.680851 20.2443609 192.433077 24.2932331 194.859574"></polygon>
            <polygon id="Fill-307" fill="#1A1A1A" points="24.2932331 194.859574 24.2932331 193.050367 21.682755 191.476596 20.2443609 192.370914"></polygon>
            <polygon id="Fill-308" fill="#9EC4D5" points="21.593985 191.982709 21.593985 184.034043 24.2932331 185.616915 24.2932331 193.506383"></polygon>
            <polygon id="Fill-310" fill="#333333" points="57.3590226 223.042719 53.3106818 220.570213 53.3101504 230.321546 57.3590226 232.748936"></polygon>
            <polygon id="Fill-311" fill="#1A1A1A" points="57.3590226 232.748936 57.3590226 230.938585 54.7486983 229.365957 53.3101504 230.259132"></polygon>
            <polygon id="Fill-312" fill="#9EC4D5" points="54.6597744 229.873177 54.6597744 221.923404 57.3590226 223.507384 57.3590226 231.395745"></polygon>
            <polygon id="Fill-314" fill="#333333" points="49.2612782 218.305217 45.2129375 215.834043 45.212406 225.586157 49.2612782 228.012766"></polygon>
            <polygon id="Fill-315" fill="#1A1A1A" points="49.2612782 228.012766 49.2612782 226.202947 46.6511428 224.629787 45.212406 225.523264"></polygon>
            <polygon id="Fill-316" fill="#9EC4D5" points="46.5620301 225.137007 46.5620301 217.187234 49.2612782 218.770107 49.2612782 226.659574"></polygon>
            <polygon id="Fill-318" fill="#333333" points="41.1635338 213.568821 37.1151931 211.097872 37.1146617 220.849095 41.1635338 223.276596"></polygon>
            <polygon id="Fill-319" fill="#1A1A1A" points="41.1635338 223.276596 41.1635338 221.466245 38.552867 219.893617 37.1146617 220.786792"></polygon>
            <polygon id="Fill-320" fill="#9EC4D5" points="38.4642857 220.400837 38.4642857 212.451064 41.1635338 214.033937 41.1635338 221.923404"></polygon>
            <polygon id="Fill-322" fill="#333333" points="33.0657895 208.832651 29.0169173 206.361702 29.0169173 216.112925 33.0657895 218.540426"></polygon>
            <polygon id="Fill-323" fill="#1A1A1A" points="33.0657895 218.540426 33.0657895 216.730075 30.4545911 215.157447 29.0169173 216.050622"></polygon>
            <polygon id="Fill-324" fill="#9EC4D5" points="30.3665414 215.664489 30.3665414 207.714894 33.0657895 209.296845 33.0657895 217.187234"></polygon>
            <polygon id="Fill-326" fill="#333333" points="24.2932331 204.098038 20.2443609 201.625532 20.2443609 211.376866 24.2932331 213.804255"></polygon>
            <polygon id="Fill-327" fill="#1A1A1A" points="24.2932331 213.804255 24.2932331 211.993905 21.682755 210.421277 20.2443609 211.314452"></polygon>
            <polygon id="Fill-328" fill="#9EC4D5" points="21.593985 210.928318 21.593985 202.978723 24.2932331 204.561781 24.2932331 212.451064"></polygon>
            <polygon id="Fill-330" fill="#333333" points="57.3590226 241.986286 53.3106818 239.514894 53.3101504 249.266227 57.3590226 251.693617"></polygon>
            <polygon id="Fill-331" fill="#1A1A1A" points="57.3590226 251.693617 57.3590226 249.883266 54.7486983 248.310638 53.3101504 249.203813"></polygon>
            <polygon id="Fill-332" fill="#9EC4D5" points="54.6597744 248.817858 54.6597744 240.868085 57.3590226 242.450958 57.3590226 250.340426"></polygon>
            <polygon id="Fill-334" fill="#333333" points="49.2612782 237.250116 45.2129375 234.778723 45.212406 244.530057 49.2612782 246.957447"></polygon>
            <polygon id="Fill-335" fill="#1A1A1A" points="49.2612782 246.957447 49.2612782 245.145953 46.6511428 243.574468 45.212406 244.467643"></polygon>
            <polygon id="Fill-336" fill="#9EC4D5" points="46.5620301 244.082616 46.5620301 236.131915 49.2612782 237.714973 49.2612782 245.604255"></polygon>
            <polygon id="Fill-338" fill="#333333" points="41.1635338 232.514172 37.1151931 230.042553 37.1146617 239.794779 41.1635338 242.221277"></polygon>
            <polygon id="Fill-339" fill="#1A1A1A" points="41.1635338 242.221277 41.1635338 240.410314 38.552867 238.838298 37.1146617 239.731775"></polygon>
            <polygon id="Fill-340" fill="#9EC4D5" points="38.4642857 239.346446 38.4642857 231.395745 41.1635338 232.978802 41.1635338 240.868085"></polygon>
            <polygon id="Fill-342" fill="#333333" points="33.0657895 227.778002 29.0169173 225.306383 29.0169173 235.057495 33.0657895 237.485106"></polygon>
            <polygon id="Fill-343" fill="#1A1A1A" points="33.0657895 237.485106 33.0657895 235.675899 30.4545911 234.102128 29.0169173 234.995303"></polygon>
            <polygon id="Fill-344" fill="#9EC4D5" points="30.3665414 234.608241 30.3665414 226.659574 33.0657895 228.242447 33.0657895 236.131915"></polygon>
            <polygon id="Fill-346" fill="#333333" points="24.2932331 223.041831 20.2443609 220.570213 20.2443609 230.322438 24.2932331 232.748936"></polygon>
            <polygon id="Fill-347" fill="#1A1A1A" points="24.2932331 232.748936 24.2932331 230.939728 21.682755 229.365957 20.2443609 230.260275"></polygon>
            <polygon id="Fill-348" fill="#9EC4D5" points="21.593985 229.872071 21.593985 221.923404 24.2932331 223.506277 24.2932331 231.395745"></polygon>
            <polygon id="Fill-350" fill="#333333" points="57.3590226 260.932081 53.3106818 258.459574 53.3101504 268.210908 57.3590226 270.638298"></polygon>
            <polygon id="Fill-351" fill="#1A1A1A" points="57.3590226 270.638298 57.3590226 268.82909 54.7486983 267.255319 53.3101504 268.148494"></polygon>
            <polygon id="Fill-352" fill="#9EC4D5" points="54.6597744 267.761432 54.6597744 259.812766 57.3590226 261.395639 57.3590226 269.285106"></polygon>
            <polygon id="Fill-354" fill="#333333" points="49.2612782 256.195023 45.2129375 253.723404 45.212406 263.47563 49.2612782 265.902128"></polygon>
            <polygon id="Fill-355" fill="#1A1A1A" points="49.2612782 265.902128 49.2612782 264.09292 46.6511428 262.519149 45.212406 263.413467"></polygon>
            <polygon id="Fill-356" fill="#9EC4D5" points="46.5620301 263.02544 46.5620301 255.076596 49.2612782 256.66039 49.2612782 264.548936"></polygon>
            <polygon id="Fill-358" fill="#333333" points="41.1635338 251.458182 37.1151931 248.987234 37.1146617 258.739571 41.1635338 261.165957"></polygon>
            <polygon id="Fill-359" fill="#1A1A1A" points="41.1635338 261.165957 41.1635338 259.354995 38.552867 257.782979 37.1146617 258.676456"></polygon>
            <polygon id="Fill-360" fill="#9EC4D5" points="38.4642857 258.291127 38.4642857 250.340426 41.1635338 251.922377 41.1635338 259.812766"></polygon>
            <polygon id="Fill-362" fill="#333333" points="33.0657895 246.722012 29.0169173 244.251064 29.0169173 254.003401 33.0657895 256.429787"></polygon>
            <polygon id="Fill-363" fill="#1A1A1A" points="33.0657895 256.429787 33.0657895 254.619436 30.4545911 253.046809 29.0169173 253.941126"></polygon>
            <polygon id="Fill-364" fill="#9EC4D5" points="30.3665414 253.55385 30.3665414 245.604255 33.0657895 247.186206 33.0657895 255.076596"></polygon>
            <polygon id="Fill-366" fill="#333333" points="24.2932331 241.986512 20.2443609 239.514894 20.2443609 249.266005 24.2932331 251.693617"></polygon>
            <polygon id="Fill-367" fill="#1A1A1A" points="24.2932331 251.693617 24.2932331 249.883266 21.682755 248.310638 20.2443609 249.203813"></polygon>
            <polygon id="Fill-368" fill="#9EC4D5" points="21.593985 248.81768 21.593985 240.868085 24.2932331 242.451143 24.2932331 250.340426"></polygon>
            <polygon id="Fill-370" fill="#000000" points="73.5545113 199.36031 77.6033835 196.889362 77.6033835 206.641698 73.5545113 209.068085"></polygon>
            <polygon id="Fill-371" fill="#1A1A1A" points="73.5545113 209.068085 73.5545113 207.257734 76.1651781 205.685106 77.6033835 206.579424"></polygon>
            <polygon id="Fill-372" fill="#9EC4D5" points="76.2537594 206.192148 76.2537594 198.242553 73.5545113 199.824504 73.5545113 207.714894"></polygon>
            <polygon id="Fill-374" fill="#000000" points="82.3270677 194.62481 86.3754084 192.153191 86.3759398 201.904303 82.3270677 204.331915"></polygon>
            <polygon id="Fill-375" fill="#1A1A1A" points="82.3270677 204.331915 82.3270677 202.521564 84.937203 200.948936 86.3759398 201.842111"></polygon>
            <polygon id="Fill-376" fill="#9EC4D5" points="84.3515038 201.455978 84.3515038 193.506383 81.6522556 195.089441 81.6522556 202.978723"></polygon>
            <polygon id="Fill-378" fill="#000000" points="90.424812 189.889528 94.4731528 187.417021 94.4736842 197.168355 90.424812 199.595745"></polygon>
            <polygon id="Fill-379" fill="#1A1A1A" points="90.424812 199.595745 90.424812 197.785394 93.0351362 196.212766 94.4736842 197.105941"></polygon>
            <polygon id="Fill-380" fill="#9EC4D5" points="93.1240602 196.719808 93.1240602 188.770213 90.424812 190.353271 90.424812 198.242553"></polygon>
            <polygon id="Fill-382" fill="#000000" points="98.5225564 185.15247 102.570897 182.680851 102.571429 192.433077 98.5225564 194.859574"></polygon>
            <polygon id="Fill-383" fill="#1A1A1A" points="98.5225564 194.859574 98.5225564 193.048612 101.133412 191.476596 102.571429 192.370073"></polygon>
            <polygon id="Fill-384" fill="#9EC4D5" points="101.221805 191.984744 101.221805 184.034043 98.5225564 185.6171 98.5225564 193.506383"></polygon>
            <polygon id="Fill-386" fill="#000000" points="65.4567669 223.042719 69.5045763 220.570213 69.5056391 230.321546 65.4567669 232.748936"></polygon>
            <polygon id="Fill-387" fill="#1A1A1A" points="65.4567669 232.748936 65.4567669 230.938585 68.0665597 229.365957 69.5056391 230.259132"></polygon>
            <polygon id="Fill-388" fill="#9EC4D5" points="68.156015 229.873177 68.156015 221.923404 65.4567669 223.507384 65.4567669 231.395745"></polygon>
            <polygon id="Fill-390" fill="#000000" points="73.5545113 218.305217 77.6033835 215.834043 77.6033835 225.586157 73.5545113 228.012766"></polygon>
            <polygon id="Fill-391" fill="#1A1A1A" points="73.5545113 228.012766 73.5545113 226.202947 76.1651781 224.629787 77.6033835 225.523264"></polygon>
            <polygon id="Fill-392" fill="#9EC4D5" points="76.2537594 225.137007 76.2537594 217.187234 73.5545113 218.770107 73.5545113 226.659574"></polygon>
            <polygon id="Fill-394" fill="#000000" points="82.3270677 213.568821 86.3754084 211.097872 86.3759398 220.849095 82.3270677 223.276596"></polygon>
            <polygon id="Fill-395" fill="#1A1A1A" points="82.3270677 223.276596 82.3270677 221.466245 84.937203 219.893617 86.3759398 220.786792"></polygon>
            <polygon id="Fill-396" fill="#9EC4D5" points="84.3515038 220.400837 84.3515038 212.451064 81.6522556 214.033937 81.6522556 221.923404"></polygon>
            <polygon id="Fill-398" fill="#000000" points="90.424812 208.832651 94.4731528 206.361702 94.4736842 216.112925 90.424812 218.540426"></polygon>
            <polygon id="Fill-399" fill="#1A1A1A" points="90.424812 218.540426 90.424812 216.730075 93.0351362 215.157447 94.4736842 216.050622"></polygon>
            <polygon id="Fill-400" fill="#9EC4D5" points="93.1240602 215.664489 93.1240602 207.714894 90.424812 209.296845 90.424812 217.187234"></polygon>
            <polygon id="Fill-402" fill="#000000" points="98.5225564 204.09648 102.570897 201.625532 102.571429 211.377869 98.5225564 213.804255"></polygon>
            <polygon id="Fill-403" fill="#1A1A1A" points="98.5225564 213.804255 98.5225564 211.993905 101.133412 210.421277 102.571429 211.315594"></polygon>
            <polygon id="Fill-404" fill="#9EC4D5" points="101.221805 210.928496 101.221805 202.978723 98.5225564 204.561596 98.5225564 212.451064"></polygon>
            <polygon id="Fill-406" fill="#000000" points="65.4567669 241.986286 69.5045763 239.514894 69.5056391 249.266227 65.4567669 251.693617"></polygon>
            <polygon id="Fill-407" fill="#1A1A1A" points="65.4567669 251.693617 65.4567669 249.883266 68.0665597 248.310638 69.5056391 249.203813"></polygon>
            <polygon id="Fill-408" fill="#9EC4D5" points="68.156015 248.817858 68.156015 240.868085 65.4567669 242.450958 65.4567669 250.340426"></polygon>
            <polygon id="Fill-410" fill="#000000" points="73.5545113 237.250116 77.6033835 234.778723 77.6033835 244.530057 73.5545113 246.957447"></polygon>
            <polygon id="Fill-411" fill="#1A1A1A" points="73.5545113 246.957447 73.5545113 245.145953 76.1651781 243.574468 77.6033835 244.467643"></polygon>
            <polygon id="Fill-412" fill="#9EC4D5" points="76.2537594 244.082616 76.2537594 236.131915 73.5545113 237.714973 73.5545113 245.604255"></polygon>
            <polygon id="Fill-414" fill="#000000" points="82.3270677 232.514172 86.3754084 230.042553 86.3759398 239.794779 82.3270677 242.221277"></polygon>
            <polygon id="Fill-415" fill="#1A1A1A" points="82.3270677 242.221277 82.3270677 240.410314 84.937203 238.838298 86.3759398 239.731775"></polygon>
            <polygon id="Fill-416" fill="#9EC4D5" points="84.3515038 239.346446 84.3515038 231.395745 81.6522556 232.978802 81.6522556 240.868085"></polygon>
            <polygon id="Fill-418" fill="#000000" points="90.424812 227.778002 94.4731528 225.306383 94.4736842 235.057495 90.424812 237.485106"></polygon>
            <polygon id="Fill-419" fill="#1A1A1A" points="90.424812 237.485106 90.424812 235.675899 93.0351362 234.102128 94.4736842 234.995303"></polygon>
            <polygon id="Fill-420" fill="#9EC4D5" points="93.1240602 234.608241 93.1240602 226.659574 90.424812 228.242447 90.424812 236.131915"></polygon>
            <polygon id="Fill-422" fill="#000000" points="98.5225564 223.042719 102.570897 220.570213 102.571429 230.321546 98.5225564 232.748936"></polygon>
            <polygon id="Fill-423" fill="#1A1A1A" points="98.5225564 232.748936 98.5225564 230.938585 101.133412 229.365957 102.571429 230.259132"></polygon>
            <polygon id="Fill-424" fill="#9EC4D5" points="101.221805 229.873177 101.221805 221.923404 98.5225564 223.507384 98.5225564 231.395745"></polygon>
            <polygon id="Fill-426" fill="#000000" points="65.4567669 260.932081 69.5045763 258.459574 69.5056391 268.210908 65.4567669 270.638298"></polygon>
            <polygon id="Fill-427" fill="#1A1A1A" points="65.4567669 270.638298 65.4567669 268.82909 68.0665597 267.255319 69.5056391 268.148494"></polygon>
            <polygon id="Fill-428" fill="#9EC4D5" points="68.156015 267.761432 68.156015 259.812766 65.4567669 261.395639 65.4567669 269.285106"></polygon>
            <polygon id="Fill-430" fill="#000000" points="73.5545113 256.195023 77.6033835 253.723404 77.6033835 263.47563 73.5545113 265.902128"></polygon>
            <polygon id="Fill-431" fill="#1A1A1A" points="73.5545113 265.902128 73.5545113 264.09292 76.1651781 262.519149 77.6033835 263.413467"></polygon>
            <polygon id="Fill-432" fill="#9EC4D5" points="76.2537594 263.02544 76.2537594 255.076596 73.5545113 256.66039 73.5545113 264.548936"></polygon>
            <polygon id="Fill-434" fill="#000000" points="82.3270677 251.458182 86.3754084 248.987234 86.3759398 258.739571 82.3270677 261.165957"></polygon>
            <polygon id="Fill-435" fill="#1A1A1A" points="82.3270677 261.165957 82.3270677 259.354995 84.937203 257.782979 86.3759398 258.676456"></polygon>
            <polygon id="Fill-436" fill="#9EC4D5" points="84.3515038 258.291127 84.3515038 250.340426 81.6522556 251.922377 81.6522556 259.812766"></polygon>
            <polygon id="Fill-438" fill="#000000" points="90.424812 246.722012 94.4731528 244.251064 94.4736842 254.003401 90.424812 256.429787"></polygon>
            <polygon id="Fill-439" fill="#1A1A1A" points="90.424812 256.429787 90.424812 254.619436 93.0351362 253.046809 94.4736842 253.941126"></polygon>
            <polygon id="Fill-440" fill="#9EC4D5" points="93.1240602 253.55385 93.1240602 245.604255 90.424812 247.186206 90.424812 255.076596"></polygon>
            <polygon id="Fill-442" fill="#000000" points="98.5225564 241.986286 102.570897 239.514894 102.571429 249.266227 98.5225564 251.693617"></polygon>
            <polygon id="Fill-443" fill="#1A1A1A" points="98.5225564 251.693617 98.5225564 249.883266 101.133412 248.310638 102.571429 249.203813"></polygon>
            <polygon id="Fill-444" fill="#9EC4D5" points="101.221805 248.817858 101.221805 240.868085 98.5225564 242.450958 98.5225564 250.340426"></polygon>
            <polygon id="Fill-446" fill="#000000" points="61.4078947 142.761702 61.4078947 145.362438 100.307996 167.795745 102.571429 166.489687"></polygon>
            <polygon id="Fill-447" fill="#333333" points="61.4078947 142.761702 20.2443609 166.481984 22.5240471 167.795745 61.4078947 145.361593"></polygon>
            <polygon id="Fill-448" fill="#000000" points="69.5056391 297.025532 69.5056391 282.819725 85.7011278 273.344681 85.7011278 287.573203"></polygon>
            <polygon id="Fill-449" fill="#333333" points="53.3101504 297.025532 53.3101504 287.290124 49.2618135 284.846809 49.2612782 294.594463"></polygon>
            <polygon id="Fill-450" fill="#4D4D4D" points="45.212406 292.289362 45.2027989 282.819727 29.0169173 273.344681 29.031328 282.81648"></polygon>
            <polygon id="Fill-451" fill="#4D4D4D" points="57.3590226 284.846809 57.3590226 280.110313 24.2932331 261.165957 24.2932331 265.90787"></polygon>
            <polygon id="Fill-452" fill="#FFFFFF" points="53.3101504 297.025532 53.3101504 292.289362 49.2612782 294.662857"></polygon>
            <polygon id="Fill-453" fill="#FFFFFF" points="56.6842105 285.523404 56.6842105 280.786909 23.6184211 261.842553 23.6184211 266.584465"></polygon>
            <polygon id="Fill-454" fill="#333333" points="56.6842105 285.523404 57.3590226 285.020361 57.3590226 280.110638 56.6842105 280.614243"></polygon>
            <polygon id="Fill-455" fill="#4D4D4D" points="57.3590226 280.297099 24.3949227 261.165957 23.6184211 261.65664 56.5819775 280.787234"></polygon>
            <polygon id="Fill-456" fill="#FFFFFF" points="73.5545113 294.319149 73.5545113 284.854385 81.6522556 280.110638 81.6522556 289.598672"></polygon>
            <polygon id="Fill-457" fill="#E6E6E6" points="58.7086466 164.536215 59.5293777 165.089362 60.7330827 164.291691 59.9093082 163.73617"></polygon>
            <polygon id="Fill-458" fill="#66AAD7" points="59.3834586 161.029787 59.3834586 164.599082 60.0582707 165.089362 60.0582707 161.520066"></polygon>
            <polygon id="Fill-459" fill="#0071BC" points="60.0582707 165.089362 60.7330827 164.583785 60.7330827 161.029787 60.0582707 161.536396"></polygon>
            <polygon id="Fill-460" fill="#CCCCCC" points="58.7086466 164.412766 58.7086466 164.640383 59.3834586 165.089362 59.3834586 164.861263"></polygon>
            <polygon id="Fill-461" fill="#808080" points="60.7330827 164.412766 60.7330827 164.5888 59.3834586 165.089362 59.3834586 164.912956"></polygon>
            <polygon id="Fill-462" fill="#338DC9" points="60.7330827 161.020356 59.6952389 161.706383 58.7086466 161.045506 59.7416093 160.353191"></polygon>
            <polygon id="Fill-463" fill="#E6E6E6" points="60.0582707 165.213296 60.8790017 165.765957 62.0827068 164.9678 61.2589322 164.412766"></polygon>
            <polygon id="Fill-464" fill="#66AAD7" points="60.7330827 161.706383 60.7330827 165.275223 61.4078947 165.765957 61.4078947 162.196081"></polygon>
            <polygon id="Fill-465" fill="#0071BC" points="61.4078947 165.765957 62.0827068 165.259478 62.0827068 161.706383 61.4078947 162.212863"></polygon>
            <polygon id="Fill-466" fill="#CCCCCC" points="60.0582707 165.765957 60.0582707 165.993899 60.7330827 166.442553 60.7330827 166.215094"></polygon>
            <polygon id="Fill-467" fill="#808080" points="62.0827068 165.089362 62.0827068 165.265396 60.7330827 165.765957 60.7330827 165.590296"></polygon>
            <polygon id="Fill-468" fill="#338DC9" points="62.0827068 161.696243 61.0445657 162.382979 60.0582707 161.722118 61.0915321 161.029787"></polygon>
            <polygon id="Fill-469" fill="#333333" points="58.7086466 156.637431 59.3839801 156.293617 60.0582707 156.62594 59.3834586 156.970213"></polygon>
            <polygon id="Fill-470" fill="#808080" points="59.3834586 156.735725 58.7189177 156.293617 58.7086466 157.205922 59.3834586 157.646809"></polygon>
            <polygon id="Fill-471" fill="#1A1A1A" points="60.0582707 156.293617 59.3834586 156.745889 59.3834586 157.646809 60.0582707 157.210237"></polygon>
            <polygon id="Fill-472" fill="#FDD0B1" points="59.3829376 157.418804 58.7102099 156.970213 58.7086466 159.921347 59.3834586 160.353191"></polygon>
            <polygon id="Fill-473" fill="#BC845E" points="59.3839801 160.353191 60.0582707 159.904852 60.0582707 156.970213 59.3834586 157.404729"></polygon>
            <polygon id="Fill-474" fill="#333333" points="59.3834586 156.984163 60.5179236 156.293617 62.7575188 157.653202 61.6332082 158.323404"></polygon>
            <polygon id="Fill-475" fill="#808080" points="59.3834586 156.970213 59.3834586 160.523369 61.4078947 161.706383 61.4078947 158.155284"></polygon>
            <polygon id="Fill-476" fill="#1A1A1A" points="62.7575188 157.646809 61.4078947 158.227252 61.4078947 161.706383 62.7575188 161.126948"></polygon>
            <polygon id="Fill-477" fill="#FBB07D" points="60.0582707 155.617609 61.0707426 154.940426 62.0827068 155.617609 61.0707426 156.293617"></polygon>
            <polygon id="Fill-478" fill="#FDD0B1" points="60.7330827 156.293225 60.7330827 157.646809 59.3834586 156.970605 59.3834586 155.617021"></polygon>
            <polygon id="Fill-479" fill="#BC845E" points="62.0827068 155.617021 62.0827068 156.971193 60.7330827 157.646809 60.7330827 156.293225"></polygon>
            <polygon id="Fill-480" fill="#333333" points="61.4078947 157.990169 62.0832283 157.646809 62.7575188 157.979583 62.0827068 158.323404"></polygon>
            <polygon id="Fill-481" fill="#808080" points="62.0827068 158.765113 61.4186712 158.323404 61.4078947 159.235497 62.0827068 159.676596"></polygon>
            <polygon id="Fill-482" fill="#1A1A1A" points="62.7575188 158.323404 62.0827068 158.774468 62.0827068 159.676596 62.7575188 159.240628"></polygon>
            <polygon id="Fill-483" fill="#FDD0B1" points="62.0821857 159.448512 61.409458 159 61.4078947 161.950613 62.0827068 162.382979"></polygon>
            <polygon id="Fill-484" fill="#BC845E" points="62.0832283 162.382979 62.7575188 161.933437 62.7575188 159 62.0827068 159.433916"></polygon>
            <path d="M60.0649419,157.050578 L60.7330827,157.383463 C60.7330827,157.383463 60.6688127,157.679135 60.3287169,157.518782 C59.9919686,157.361812 60.0649419,157.050578 60.0649419,157.050578" id="Fill-485" fill="#F15A24"></path>
            <polygon id="Fill-487" fill="#333333" points="81.6522556 289.582979 77.6188698 287.210709 77.6033835 282.480748 81.6522556 280.110638"></polygon>
            <polygon id="Fill-489" fill="#535353" points="61.4078947 311.910638 61.4078947 310.731931 122.815789 275.374468 122.815789 276.552637"></polygon>
            <polygon id="Fill-491" fill="#292828" points="61.4078947 311.910638 61.4078947 310.731931 0 275.374468 0 276.552637"></polygon>
            <path d="M206.492481,228.011343 C206.492481,228.386281 206.190101,228.689362 205.817433,228.689362 C205.444765,228.689362 205.142857,228.386281 205.142857,228.011343 C205.142857,227.639251 205.444765,227.33617 205.817433,227.33617 C206.190101,227.33617 206.492481,227.639251 206.492481,228.011343" id="Fill-493" fill="#998675"></path>
            <polygon id="Fill-495" fill="#998675" points="205.142857 228.012766 206.492481 228.012766 206.492481 223.953191 205.142857 223.953191"></polygon>
            <polygon id="Fill-497" fill="#22B573" points="205.817395 216.510638 212.565789 220.231128 205.817395 223.953191 199.069549 220.232177"></polygon>
            <polygon id="Fill-498" fill="#4EC48F" points="199.069549 220.818162 205.817669 200.948936 205.817669 224.629787"></polygon>
            <polygon id="Fill-499" fill="#1A8856" points="212.565789 220.817087 205.817669 200.948936 205.817669 224.629787"></polygon>
            <path d="M10.1221805,276.051064 C10.1221805,276.424579 9.81943459,276.72766 9.44689685,276.72766 C9.07435912,276.72766 8.77255639,276.424579 8.77255639,276.051064 C8.77255639,275.676126 9.07435912,275.374468 9.44689685,275.374468 C9.81943459,275.374468 10.1221805,275.676126 10.1221805,276.051064" id="Fill-500" fill="#998675"></path>
            <polygon id="Fill-501" fill="#998675" points="8.77255639 276.051064 10.1221805 276.051064 10.1221805 271.991489 8.77255639 271.991489"></polygon>
            <polygon id="Fill-502" fill="#22B573" points="9.44709387 264.548936 16.1954887 268.269951 9.44709387 271.991489 2.69924812 268.269951"></polygon>
            <polygon id="Fill-503" fill="#4EC48F" points="3.37406015 268.178963 10.1221805 248.310638 10.1221805 271.991489"></polygon>
            <polygon id="Fill-504" fill="#1A8856" points="16.1954887 268.178963 9.44736842 248.310638 9.44736842 271.991489"></polygon>
            <path d="M158.580827,255.075885 C158.580827,255.449008 158.278081,255.753191 157.906015,255.753191 C157.533006,255.753191 157.231203,255.449008 157.231203,255.075885 C157.231203,254.702762 157.533006,254.4 157.906015,254.4 C158.278081,254.4 158.580827,254.702762 158.580827,255.075885" id="Fill-505" fill="#998675"></path>
            <polygon id="Fill-506" fill="#998675" points="157.231203 255.076596 158.580827 255.076596 158.580827 251.017021 157.231203 251.017021"></polygon>
            <polygon id="Fill-507" fill="#22B573" points="157.906564 243.574468 164.654135 247.296531 157.906564 251.017021 151.157895 247.296531"></polygon>
            <polygon id="Fill-508" fill="#4EC48F" points="151.157895 247.20647 157.906015 227.33617 157.906015 251.017021"></polygon>
            <polygon id="Fill-509" fill="#1A8856" points="164.654135 247.20647 157.906015 227.33617 157.906015 251.017021"></polygon>
            <polygon id="Fill-510" fill="#191818" points="252.447222 317.323404 359 256.123607 297.53215 220.570213 190.971805 281.763511"></polygon>
            <polygon id="Fill-511" fill="#535353" points="252.379699 318 252.379699 316.817712 359 255.753191 359 256.93602"></polygon>
            <polygon id="Fill-512" fill="#292828" points="252.379699 318 252.379699 316.821831 190.971805 281.46383 190.971805 282.643076"></polygon>
            <polygon id="Fill-513" fill="#4D4D4D" points="252.379699 145.805842 297.591292 119.757447 342.804511 145.805842 297.591292 171.855319"></polygon>
            <polygon id="Fill-514" fill="#1A1A1A" points="256.428571 145.467815 297.592105 121.787234 338.755639 145.467815 297.592105 169.148936"></polygon>
            <polygon id="Fill-515" fill="#333333" points="342.804511 255.997 342.804511 145.468085 297.592105 171.610968 297.592105 282.140426"></polygon>
            <polygon id="Fill-516" fill="#000000" points="297.592105 282.140426 297.592105 171.611407 252.379699 145.468085 252.379699 255.997104"></polygon>
            <polygon id="Fill-517" fill="#000000" points="252.379699 308.52766 252.379699 232.50991 207.167293 206.361702 207.167293 282.378909"></polygon>
            <polygon id="Fill-518" fill="#000000" points="297.592105 121.787234 297.592105 124.389053 336.492749 146.821277 338.755639 145.516302"></polygon>
            <polygon id="Fill-519" fill="#333333" points="297.592105 121.787234 256.428571 145.508086 258.707745 146.821277 297.592105 124.388152"></polygon>
            <polygon id="Fill-520" fill="#9EC4D5" points="294.892857 144.238585 295.713287 144.791489 296.917293 143.993575 296.09382 143.438298"></polygon>
            <polygon id="Fill-521" fill="#66AAD7" points="294.892857 140.055319 294.892857 143.625133 295.567669 144.114894 295.567669 140.545598"></polygon>
            <polygon id="Fill-522" fill="#0071BC" points="296.242481 144.114894 296.917293 143.608801 296.917293 140.055319 296.242481 140.561928"></polygon>
            <polygon id="Fill-523" fill="#9EC4D5" points="294.892857 144.114894 294.892857 144.34203 295.567669 144.791489 295.567669 144.563391"></polygon>
            <polygon id="Fill-524" fill="#808080" points="296.917293 144.114894 296.917293 144.290459 295.567669 144.791489 295.567669 144.61518"></polygon>
            <polygon id="Fill-525" fill="#338DC9" points="296.917293 140.045888 295.879137 140.731915 294.892857 140.071038 295.926131 139.378723"></polygon>
            <polygon id="Fill-526" fill="#9EC4D5" points="296.242481 144.915423 297.063212 145.468085 298.266917 144.669334 297.44365 144.114894"></polygon>
            <polygon id="Fill-527" fill="#66AAD7" points="296.242481 140.731915 296.242481 144.300692 296.917293 144.791489 296.917293 141.221676"></polygon>
            <polygon id="Fill-528" fill="#0071BC" points="297.592105 144.791489 298.266917 144.28501 298.266917 140.731915 297.592105 141.23891"></polygon>
            <polygon id="Fill-529" fill="#9EC4D5" points="296.242481 144.791489 296.242481 145.019431 296.917293 145.468085 296.917293 145.240626"></polygon>
            <polygon id="Fill-530" fill="#808080" points="298.266917 144.791489 298.266917 144.967799 296.917293 145.468085 296.917293 145.29252"></polygon>
            <polygon id="Fill-531" fill="#338DC9" points="298.266917 140.721785 297.228463 141.408511 296.242481 140.748332 297.275444 140.055319"></polygon>
            <polygon id="Fill-532" fill="#333333" points="294.218045 135.663196 294.892857 135.319149 295.567669 135.651697 294.892336 135.995745"></polygon>
            <polygon id="Fill-533" fill="#808080" points="294.892857 135.760646 294.22883 135.319149 294.218045 136.230843 294.892857 136.67234"></polygon>
            <polygon id="Fill-534" fill="#1A1A1A" points="295.567669 135.319149 294.892857 135.770817 294.892857 136.67234 295.567669 136.235769"></polygon>
            <polygon id="Fill-535" fill="#9EC4D5" points="294.892336 136.444257 294.219088 135.995745 294.218045 138.946358 294.892857 139.378723"></polygon>
            <polygon id="Fill-536" fill="#BC845E" points="294.893378 139.378723 295.567669 138.929863 295.567669 135.995745 294.892857 136.430184"></polygon>
            <polygon id="Fill-537" fill="#333333" points="294.892857 136.009695 296.026948 135.319149 298.266917 136.679316 297.142419 137.348936"></polygon>
            <polygon id="Fill-538" fill="#808080" points="294.892857 136.67234 294.892857 140.224725 296.917293 141.408511 296.917293 137.857154"></polygon>
            <polygon id="Fill-539" fill="#1A1A1A" points="298.266917 137.348936 296.917293 137.929307 296.917293 141.408511 298.266917 140.82814"></polygon>
            <polygon id="Fill-540" fill="#FBB07D" points="295.567669 135.319737 296.580141 134.642553 297.592105 135.319737 296.580141 135.995745"></polygon>
            <polygon id="Fill-541" fill="#9EC4D5" points="296.917293 135.995353 296.917293 137.348936 295.567669 136.672732 295.567669 135.319149"></polygon>
            <polygon id="Fill-542" fill="#BC845E" points="298.266917 135.319149 298.266917 136.672732 296.917293 137.348936 296.917293 135.995353"></polygon>
            <polygon id="Fill-543" fill="#333333" points="297.592105 137.692757 298.266917 137.348936 298.941729 137.682171 298.266396 138.025532"></polygon>
            <polygon id="Fill-544" fill="#808080" points="298.266917 137.790035 297.603395 137.348936 297.592105 138.260419 298.266917 138.702128"></polygon>
            <polygon id="Fill-545" fill="#1A1A1A" points="298.941729 137.348936 298.266917 137.799396 298.266917 138.702128 298.941729 138.265556"></polygon>
            <polygon id="Fill-546" fill="#9EC4D5" points="298.266396 138.474044 297.593148 138.025532 297.592105 140.976145 298.266917 141.408511"></polygon>
            <polygon id="Fill-547" fill="#BC845E" points="298.267438 141.408511 298.941729 140.959049 298.941729 138.025532 298.266917 138.459971"></polygon>
            <path d="M295.574334,136.076244 L296.242481,136.409129 C296.242481,136.409129 296.177606,136.704124 295.837847,136.544448 C295.501433,136.386801 295.574334,136.076244 295.574334,136.076244" id="Fill-548" fill="#F15A24"></path>
            <polygon id="Fill-549" fill="#333333" points="297.592105 282.45207 297.592105 207.038298 252.379699 233.110639 252.379699 308.52766"></polygon>
            <polygon id="Fill-550" fill="#1A1A1A" points="252.379699 232.748936 297.592105 206.758835 252.379699 180.651064 207.167293 206.369659"></polygon>
            <polygon id="Fill-551" fill="#000000" points="230.110902 214.480851 230.110902 191.97086 216.614662 189.446809 216.614662 206.737733"></polygon>
            <polygon id="Fill-552" fill="#333333" points="242.932331 206.702262 242.932331 189.446809 229.43609 197.225398 229.43609 214.480851"></polygon>
            <polygon id="Fill-553" fill="#000000" points="235.509398 201.518584 235.509398 211.097872 240.233083 208.499545 240.233083 198.919149"></polygon>
            <polygon id="Fill-554" fill="#1A1A1A" points="229.773228 197.565957 242.932331 189.802631 229.773228 182.004255 216.614662 189.685984"></polygon>
            <polygon id="Fill-555" fill="#000000" points="260.477444 236.853593 268.574655 232.07234 268.575188 241.54396 260.477444 246.280851"></polygon>
            <polygon id="Fill-556" fill="#1A1A1A" points="262.386297 245.604255 260.477444 244.531029 267.341147 240.868085 269.25 241.915296"></polygon>
            <polygon id="Fill-557" fill="#5C5C5C" points="262.50295 246.037707 262.50188 247.634043 269.25 243.844526 269.25 242.221277"></polygon>
            <polygon id="Fill-558" fill="#9EC4D5" points="267.225564 241.105556 267.225564 233.425532 260.477444 237.306438 260.477444 244.92766"></polygon>
            <polygon id="Fill-559" fill="#000000" points="262.50188 246.037862 260.477444 244.92766 260.477444 246.599296 262.500725 247.634043"></polygon>
            <polygon id="Fill-560" fill="#000000" points="276.672932 227.381253 284.770143 222.6 284.770677 232.071619 276.672932 236.808511"></polygon>
            <polygon id="Fill-561" fill="#1A1A1A" points="278.58136 236.131915 276.672932 235.05841 283.537606 231.395745 285.445489 232.44375"></polygon>
            <polygon id="Fill-562" fill="#5C5C5C" points="278.697904 236.566111 278.697368 238.161702 285.445489 234.371446 285.445489 232.748936"></polygon>
            <polygon id="Fill-563" fill="#9EC4D5" points="283.421053 231.633215 283.421053 223.953191 276.672932 227.834097 276.672932 235.455319"></polygon>
            <polygon id="Fill-564" fill="#000000" points="278.697368 236.566266 276.672932 235.455319 276.672932 237.126753 278.696791 238.161702"></polygon>
            <polygon id="Fill-565" fill="#000000" points="293.543233 217.908912 301.639911 213.12766 301.640977 222.599279 293.543233 227.33617"></polygon>
            <polygon id="Fill-566" fill="#1A1A1A" points="295.451116 226.659574 293.543233 225.58658 300.407362 221.923404 302.315789 222.97141"></polygon>
            <polygon id="Fill-567" fill="#5C5C5C" points="294.892857 227.09377 294.892857 228.689362 301.640977 224.899106 301.640977 223.276596"></polygon>
            <polygon id="Fill-568" fill="#9EC4D5" points="300.291353 222.160161 300.291353 214.480851 293.543233 218.361396 293.543233 225.982979"></polygon>
            <polygon id="Fill-569" fill="#000000" points="295.567669 227.093615 293.543233 225.982979 293.543233 227.654211 295.567669 228.689362"></polygon>
            <polygon id="Fill-570" fill="#000000" points="309.738722 208.435854 317.8354 203.655319 317.836466 213.12766 309.738722 217.86383"></polygon>
            <polygon id="Fill-571" fill="#1A1A1A" points="311.647575 217.187234 309.738722 216.114797 316.602969 212.451064 318.511278 213.498501"></polygon>
            <polygon id="Fill-572" fill="#5C5C5C" points="311.763693 217.61963 311.763158 219.217021 318.511278 215.426449 318.511278 213.804255"></polygon>
            <polygon id="Fill-573" fill="#9EC4D5" points="316.486842 212.68782 316.486842 205.008511 309.738722 208.889056 309.738722 216.510638"></polygon>
            <polygon id="Fill-574" fill="#000000" points="311.763158 217.619786 309.738722 216.510638 309.738722 218.181219 311.76258 219.217021"></polygon>
            <polygon id="Fill-575" fill="#000000" points="325.934211 198.963149 334.031422 194.182979 334.031955 203.654598 325.934211 208.391489"></polygon>
            <polygon id="Fill-576" fill="#1A1A1A" points="327.842638 207.714894 325.934211 206.642457 332.79834 202.978723 334.706767 204.02616"></polygon>
            <polygon id="Fill-577" fill="#5C5C5C" points="327.959182 208.14729 327.958647 209.744681 334.706767 205.955164 334.706767 204.331915"></polygon>
            <polygon id="Fill-578" fill="#9EC4D5" points="332.682331 203.21548 332.682331 195.53617 325.934211 199.416715 325.934211 207.038298"></polygon>
            <polygon id="Fill-579" fill="#000000" points="327.958647 208.147445 325.934211 207.038298 325.934211 208.709934 327.958069 209.744681"></polygon>
            <polygon id="Fill-580" fill="#000000" points="309.738722 189.490809 317.8354 184.710638 317.836466 194.182257 309.738722 198.919149"></polygon>
            <polygon id="Fill-581" fill="#1A1A1A" points="311.647575 198.242553 309.738722 197.169327 316.602969 193.506383 318.511278 194.553594"></polygon>
            <polygon id="Fill-582" fill="#5C5C5C" points="311.763693 198.676005 311.763158 200.27234 318.511278 196.482824 318.511278 194.859574"></polygon>
            <polygon id="Fill-583" fill="#9EC4D5" points="316.486842 193.743853 316.486842 186.06383 309.738722 189.943666 309.738722 197.565957"></polygon>
            <polygon id="Fill-584" fill="#000000" points="311.763158 198.67616 309.738722 197.565957 309.738722 199.237593 311.76258 200.27234"></polygon>
            <polygon id="Fill-585" fill="#000000" points="325.934211 180.01955 334.031422 175.238298 334.031955 184.709917 325.934211 189.446809"></polygon>
            <polygon id="Fill-586" fill="#1A1A1A" points="327.842638 188.770213 325.934211 187.696987 332.79834 184.034043 334.706767 185.081254"></polygon>
            <polygon id="Fill-587" fill="#5C5C5C" points="327.959182 189.203664 327.958647 190.8 334.706767 187.010483 334.706767 185.387234"></polygon>
            <polygon id="Fill-588" fill="#9EC4D5" points="332.682331 184.271513 332.682331 176.591489 325.934211 180.472395 325.934211 188.093617"></polygon>
            <polygon id="Fill-589" fill="#000000" points="327.958647 189.20382 325.934211 188.093617 325.934211 189.765253 327.958069 190.8"></polygon>
            <polygon id="Fill-590" fill="#000000" points="309.738722 170.546492 317.8354 165.765957 317.836466 175.237216 309.738722 179.974468"></polygon>
            <polygon id="Fill-591" fill="#1A1A1A" points="311.647575 179.297872 309.738722 178.224878 316.602969 174.561702 318.511278 175.609708"></polygon>
            <polygon id="Fill-592" fill="#5C5C5C" points="311.763693 179.732068 311.763158 181.32766 318.511278 177.538459 318.511278 175.914894"></polygon>
            <polygon id="Fill-593" fill="#9EC4D5" points="316.486842 174.798459 316.486842 167.119149 309.738722 170.999694 309.738722 178.621277"></polygon>
            <polygon id="Fill-594" fill="#000000" points="311.763158 179.731912 309.738722 178.621277 309.738722 180.292509 311.76258 181.32766"></polygon>
            <polygon id="Fill-595" fill="#000000" points="325.934211 161.073793 334.031422 156.293617 334.031955 165.764695 325.934211 170.502128"></polygon>
            <polygon id="Fill-596" fill="#1A1A1A" points="327.842638 169.825532 325.934211 168.752306 332.79834 165.089362 334.706767 166.136573"></polygon>
            <polygon id="Fill-597" fill="#5C5C5C" points="327.959182 170.258983 327.958647 171.855319 334.706767 168.064747 334.706767 166.442553"></polygon>
            <polygon id="Fill-598" fill="#9EC4D5" points="332.682331 165.326118 332.682331 157.646809 325.934211 161.527353 325.934211 169.148936"></polygon>
            <polygon id="Fill-599" fill="#000000" points="327.958647 170.259139 325.934211 169.148936 325.934211 170.819517 327.958069 171.855319"></polygon>
            <polygon id="Fill-600" fill="#000000" points="260.477444 256.473788 268.574655 251.693617 268.575188 261.165236 260.477444 265.902128"></polygon>
            <polygon id="Fill-601" fill="#1A1A1A" points="262.386297 265.225532 260.477444 264.152306 267.341147 260.489362 269.25 261.536573"></polygon>
            <polygon id="Fill-602" fill="#5C5C5C" points="262.50295 264.982388 262.50188 266.578723 269.25 262.789207 269.25 261.165957"></polygon>
            <polygon id="Fill-603" fill="#9EC4D5" points="267.225564 260.050592 267.225564 252.370213 260.477444 256.250758 260.477444 263.87234"></polygon>
            <polygon id="Fill-604" fill="#000000" points="262.50188 264.982543 260.477444 263.87234 260.477444 265.543976 262.500725 266.578723"></polygon>
            <polygon id="Fill-605" fill="#000000" points="276.672932 247.001811 284.770143 242.221277 284.770677 251.693617 276.672932 256.429787"></polygon>
            <polygon id="Fill-606" fill="#1A1A1A" points="278.58136 255.753191 276.672932 254.679966 283.537606 251.017021 285.445489 252.064233"></polygon>
            <polygon id="Fill-607" fill="#5C5C5C" points="278.697904 255.510047 278.697368 257.106383 285.445489 253.316866 285.445489 251.693617"></polygon>
            <polygon id="Fill-608" fill="#9EC4D5" points="283.421053 250.578251 283.421053 242.897872 276.672932 246.778417 276.672932 254.4"></polygon>
            <polygon id="Fill-609" fill="#000000" points="278.697368 255.510203 276.672932 254.4 276.672932 256.070581 278.696791 257.106383"></polygon>
            <polygon id="Fill-610" fill="#000000" points="293.543233 237.528753 301.639911 232.748936 301.640977 242.221998 293.543233 246.957447"></polygon>
            <polygon id="Fill-611" fill="#1A1A1A" points="295.451116 246.280851 293.543233 245.207625 300.407362 241.544681 302.315789 242.591892"></polygon>
            <polygon id="Fill-612" fill="#5C5C5C" points="294.892857 246.036963 294.892857 247.634043 301.640977 243.844209 301.640977 242.221277"></polygon>
            <polygon id="Fill-613" fill="#9EC4D5" points="300.291353 241.104842 300.291353 233.425532 293.543233 237.306077 293.543233 244.92766"></polygon>
            <polygon id="Fill-614" fill="#000000" points="295.567669 246.03743 293.543233 244.92766 293.543233 246.597589 295.567669 247.634043"></polygon>
            <polygon id="Fill-615" fill="#000000" points="309.738722 228.056048 317.8354 223.276596 317.836466 232.747854 309.738722 237.485106"></polygon>
            <polygon id="Fill-616" fill="#1A1A1A" points="311.647575 236.808511 309.738722 235.735285 316.602969 232.07234 318.511278 233.119552"></polygon>
            <polygon id="Fill-617" fill="#5C5C5C" points="311.763693 236.564622 311.763158 238.161702 318.511278 234.372924 318.511278 232.748936"></polygon>
            <polygon id="Fill-618" fill="#9EC4D5" points="316.486842 231.63357 316.486842 223.953191 309.738722 227.833736 309.738722 235.455319"></polygon>
            <polygon id="Fill-619" fill="#000000" points="311.763158 236.565089 309.738722 235.455319 309.738722 237.126304 311.76258 238.161702"></polygon>
            <polygon id="Fill-620" fill="#000000" points="325.934211 218.583708 334.031422 213.804255 334.031955 223.275514 325.934211 228.012766"></polygon>
            <polygon id="Fill-621" fill="#1A1A1A" points="327.842638 227.33617 325.934211 226.262944 332.79834 222.6 334.706767 223.647211"></polygon>
            <polygon id="Fill-622" fill="#5C5C5C" points="327.959182 227.092282 327.958647 228.689362 334.706767 224.900584 334.706767 223.276596"></polygon>
            <polygon id="Fill-623" fill="#9EC4D5" points="332.682331 222.160875 332.682331 214.480851 325.934211 218.360688 325.934211 225.982979"></polygon>
            <polygon id="Fill-624" fill="#000000" points="327.958647 227.092749 325.934211 225.982979 325.934211 227.653963 327.958069 228.689362"></polygon>
            <polygon id="Fill-625" fill="#000000" points="260.477444 275.418832 268.574655 270.638298 268.575188 280.109556 260.477444 284.846809"></polygon>
            <polygon id="Fill-626" fill="#1A1A1A" points="262.386297 284.170213 260.477444 283.097776 267.341147 279.434043 269.25 280.48148"></polygon>
            <polygon id="Fill-627" fill="#5C5C5C" points="262.50295 284.602609 262.50188 286.2 269.25 282.409428 269.25 280.787234"></polygon>
            <polygon id="Fill-628" fill="#9EC4D5" points="267.225564 279.670799 267.225564 271.991489 260.477444 275.872034 260.477444 283.493617"></polygon>
            <polygon id="Fill-629" fill="#000000" points="262.50188 284.602764 260.477444 283.493617 260.477444 285.164198 262.500725 286.2"></polygon>
            <polygon id="Fill-630" fill="#000000" points="276.672932 265.946128 284.770143 261.165957 284.770677 270.637577 276.672932 275.374468"></polygon>
            <polygon id="Fill-631" fill="#1A1A1A" points="278.58136 274.697872 276.672932 273.625436 283.537606 269.961702 285.445489 271.009139"></polygon>
            <polygon id="Fill-632" fill="#5C5C5C" points="278.697904 275.130268 278.697368 276.72766 285.445489 272.938143 285.445489 271.314894"></polygon>
            <polygon id="Fill-633" fill="#9EC4D5" points="283.421053 270.198459 283.421053 262.519149 276.672932 266.399694 276.672932 274.021277"></polygon>
            <polygon id="Fill-634" fill="#000000" points="278.697368 275.130424 276.672932 274.021277 276.672932 275.692913 278.696791 276.72766"></polygon>
            <polygon id="Fill-635" fill="#000000" points="244.281955 236.853593 236.184744 232.07234 236.184211 241.54396 244.281955 246.280851"></polygon>
            <polygon id="Fill-636" fill="#1A1A1A" points="242.373528 245.604255 244.281955 244.531029 237.417826 240.868085 235.509398 241.915296"></polygon>
            <polygon id="Fill-637" fill="#5C5C5C" points="242.257519 246.037707 242.257519 247.634043 235.509398 243.844526 235.509398 242.221277"></polygon>
            <polygon id="Fill-638" fill="#9EC4D5" points="237.533835 241.105556 237.533835 233.425532 244.281955 237.306438 244.281955 244.92766"></polygon>
            <polygon id="Fill-639" fill="#333333" points="242.257519 246.037862 244.281955 244.92766 244.281955 246.599296 242.257519 247.634043"></polygon>
            <polygon id="Fill-640" fill="#000000" points="223.362782 225.350747 215.265571 220.570213 215.265038 230.041471 223.362782 234.778723"></polygon>
            <polygon id="Fill-641" fill="#1A1A1A" points="221.454899 234.102128 223.362782 233.029133 216.498653 229.365957 214.590226 230.413963"></polygon>
            <polygon id="Fill-642" fill="#5C5C5C" points="222.013158 233.858983 222.013158 235.455319 215.265038 231.665802 215.265038 230.042553"></polygon>
            <polygon id="Fill-643" fill="#9EC4D5" points="216.614662 228.926118 216.614662 221.246809 223.362782 225.127353 223.362782 232.748936"></polygon>
            <polygon id="Fill-644" fill="#333333" points="221.338346 233.859139 223.362782 232.748936 223.362782 234.419517 221.338346 235.455319"></polygon>
            <polygon id="Fill-645" fill="#000000" points="244.281955 256.473788 236.184744 251.693617 236.184211 261.165236 244.281955 265.902128"></polygon>
            <polygon id="Fill-646" fill="#1A1A1A" points="242.373528 265.225532 244.281955 264.152306 237.417826 260.489362 235.509398 261.536573"></polygon>
            <polygon id="Fill-647" fill="#5C5C5C" points="242.257519 264.982388 242.257519 266.578723 235.509398 262.789207 235.509398 261.165957"></polygon>
            <polygon id="Fill-648" fill="#9EC4D5" points="237.533835 260.050592 237.533835 252.370213 244.281955 256.250758 244.281955 263.87234"></polygon>
            <polygon id="Fill-649" fill="#333333" points="242.257519 264.982543 244.281955 263.87234 244.281955 265.543976 242.257519 266.578723"></polygon>
            <polygon id="Fill-650" fill="#000000" points="223.362782 244.295428 215.265571 239.514894 215.265038 248.986152 223.362782 253.723404"></polygon>
            <polygon id="Fill-651" fill="#1A1A1A" points="221.454899 253.046809 223.362782 251.974372 216.498653 248.310638 214.590226 249.357055"></polygon>
            <polygon id="Fill-652" fill="#5C5C5C" points="222.013158 253.479516 222.013158 255.076596 215.265038 251.286763 215.265038 249.66383"></polygon>
            <polygon id="Fill-653" fill="#9EC4D5" points="216.614662 248.547395 216.614662 240.868085 223.362782 244.74863 223.362782 252.370213"></polygon>
            <polygon id="Fill-654" fill="#333333" points="221.338346 253.47936 223.362782 252.370213 223.362782 254.040793 221.338346 255.076596"></polygon>
            <polygon id="Fill-655" fill="#000000" points="244.281955 275.418832 236.184744 270.638298 236.184211 280.109556 244.281955 284.846809"></polygon>
            <polygon id="Fill-656" fill="#1A1A1A" points="242.373528 284.170213 244.281955 283.097776 237.417826 279.434043 235.509398 280.48148"></polygon>
            <polygon id="Fill-657" fill="#5C5C5C" points="242.257519 284.602609 242.257519 286.2 235.509398 282.409428 235.509398 280.787234"></polygon>
            <polygon id="Fill-658" fill="#9EC4D5" points="237.533835 279.670799 237.533835 271.991489 244.281955 275.872034 244.281955 283.493617"></polygon>
            <polygon id="Fill-659" fill="#333333" points="242.257519 284.602764 244.281955 283.493617 244.281955 285.164198 242.257519 286.2"></polygon>
            <polygon id="Fill-660" fill="#000000" points="223.362782 263.916341 215.265571 259.13617 215.265038 268.607789 223.362782 273.344681"></polygon>
            <polygon id="Fill-661" fill="#1A1A1A" points="221.454899 272.668085 223.362782 271.594859 216.498653 267.931915 214.590226 268.979126"></polygon>
            <polygon id="Fill-662" fill="#5C5C5C" points="222.013158 272.424941 222.013158 274.021277 215.265038 270.23176 215.265038 268.608511"></polygon>
            <polygon id="Fill-663" fill="#9EC4D5" points="216.614662 267.492076 216.614662 259.812766 223.362782 263.693311 223.362782 271.314894"></polygon>
            <polygon id="Fill-664" fill="#333333" points="221.338346 272.425096 223.362782 271.314894 223.362782 272.98653 221.338346 274.021277"></polygon>
            <polygon id="Fill-665" fill="#000000" points="293.543233 256.473788 301.639911 251.693617 301.640977 261.165236 293.543233 265.902128"></polygon>
            <polygon id="Fill-666" fill="#1A1A1A" points="295.451116 265.225532 293.543233 264.153095 300.407362 260.489362 302.315789 261.535778"></polygon>
            <polygon id="Fill-667" fill="#5C5C5C" points="294.892857 265.658239 294.892857 267.255319 301.640977 263.466541 301.640977 261.842553"></polygon>
            <polygon id="Fill-668" fill="#9EC4D5" points="300.291353 260.727187 300.291353 253.046809 293.543233 256.927353 293.543233 264.548936"></polygon>
            <polygon id="Fill-669" fill="#000000" points="295.567669 265.658084 293.543233 264.548936 293.543233 266.220572 295.567669 267.255319"></polygon>
            <polygon id="Fill-670" fill="#000000" points="309.738722 247.001447 317.8354 242.221277 317.836466 251.692896 309.738722 256.429787"></polygon>
            <polygon id="Fill-671" fill="#1A1A1A" points="311.647575 255.753191 309.738722 254.680755 316.602969 251.017021 318.511278 252.063438"></polygon>
            <polygon id="Fill-672" fill="#5C5C5C" points="311.763693 256.185899 311.763158 257.782979 318.511278 253.994201 318.511278 252.370213"></polygon>
            <polygon id="Fill-673" fill="#9EC4D5" points="316.486842 250.577896 316.486842 242.897872 309.738722 246.777709 309.738722 254.4"></polygon>
            <polygon id="Fill-674" fill="#000000" points="311.763158 256.185743 309.738722 255.076596 309.738722 256.748232 311.76258 257.782979"></polygon>
            <polygon id="Fill-675" fill="#000000" points="325.934211 237.530189 334.031422 232.748936 334.031955 242.220555 325.934211 246.957447"></polygon>
            <polygon id="Fill-676" fill="#1A1A1A" points="327.842638 246.280851 325.934211 245.208414 332.79834 241.544681 334.706767 242.591097"></polygon>
            <polygon id="Fill-677" fill="#5C5C5C" points="327.959182 246.713558 327.958647 248.310638 334.706767 244.52186 334.706767 242.897872"></polygon>
            <polygon id="Fill-678" fill="#9EC4D5" points="332.682331 241.105911 332.682331 233.425532 325.934211 237.307146 325.934211 244.92766"></polygon>
            <polygon id="Fill-679" fill="#000000" points="327.958647 246.713403 325.934211 245.604255 325.934211 247.275891 327.958069 248.310638"></polygon>
            <path d="M253.054511,310.556736 C253.054511,310.93128 252.751765,311.234043 252.379228,311.234043 C252.00669,311.234043 251.704887,310.93128 251.704887,310.556736 C251.704887,310.185035 252.00669,309.880851 252.379228,309.880851 C252.751765,309.880851 253.054511,310.185035 253.054511,310.556736" id="Fill-680" fill="#998675"></path>
            <polygon id="Fill-681" fill="#998675" points="251.704887 310.557447 253.054511 310.557447 253.054511 306.497872 251.704887 306.497872"></polygon>
            <polygon id="Fill-682" fill="#22B573" points="252.379699 299.731915 259.12782 303.452929 252.379699 307.174468 245.631579 303.452929"></polygon>
            <polygon id="Fill-683" fill="#4EC48F" points="245.631579 303.361768 252.379699 283.493617 252.379699 307.174468"></polygon>
            <polygon id="Fill-684" fill="#1A8856" points="259.12782 303.361768 252.379699 283.493617 252.379699 307.174468"></polygon>
            <path d="M349.552632,255.754614 C349.552632,256.126706 349.250252,256.429787 348.877584,256.429787 C348.504444,256.429787 348.203008,256.126706 348.203008,255.754614 C348.203008,255.379676 348.504444,255.076596 348.877584,255.076596 C349.250252,255.076596 349.552632,255.379676 349.552632,255.754614" id="Fill-685" fill="#998675"></path>
            <polygon id="Fill-686" fill="#998675" points="348.203008 255.753191 349.552632 255.753191 349.552632 251.693617 348.203008 251.693617"></polygon>
            <polygon id="Fill-687" fill="#22B573" points="348.878094 244.251064 355.62594 247.973127 348.878094 251.693617 342.129699 247.973127"></polygon>
            <polygon id="Fill-688" fill="#4EC48F" points="342.129699 247.883066 348.87782 228.012766 348.87782 251.693617"></polygon>
            <polygon id="Fill-689" fill="#1A8856" points="355.62594 247.883066 348.87782 228.012766 348.87782 251.693617"></polygon>
        </g>
    </g>
</svg>